G75*
%MOIN*%
%OFA0B0*%
%FSLAX25Y25*%
%IPPOS*%
%LPD*%
%AMOC8*
5,1,8,0,0,1.08239X$1,22.5*
%
%ADD10C,0.00000*%
%ADD11OC8,0.05200*%
%ADD12C,0.05200*%
%ADD13C,0.05150*%
%ADD14C,0.11220*%
%ADD15C,0.07400*%
%ADD16C,0.05200*%
%ADD17C,0.05937*%
%ADD18C,0.01600*%
%ADD19C,0.03562*%
D10*
X0006000Y0007548D02*
X0006000Y0204398D01*
X0202850Y0204398D01*
X0202850Y0007548D01*
X0006000Y0007548D01*
D11*
X0016787Y0014300D03*
X0016787Y0024300D03*
X0026000Y0037548D03*
X0035016Y0024497D03*
X0035016Y0014497D03*
X0041000Y0037548D03*
X0057240Y0034654D03*
X0071000Y0047548D03*
X0071000Y0057548D03*
X0041000Y0077548D03*
X0026000Y0077548D03*
X0074681Y0025265D03*
X0074681Y0015265D03*
X0093047Y0014261D03*
X0100547Y0019261D03*
X0093047Y0024261D03*
X0111965Y0025875D03*
X0111965Y0015875D03*
X0159839Y0089261D03*
X0133835Y0160639D03*
X0133835Y0170639D03*
X0151000Y0192548D03*
X0111000Y0192548D03*
X0071000Y0172548D03*
X0031000Y0172548D03*
D12*
X0139839Y0089261D03*
X0057240Y0014654D03*
D13*
X0128126Y0017548D03*
X0136000Y0017548D03*
X0143874Y0017548D03*
X0165921Y0026249D03*
X0170646Y0029398D03*
X0165921Y0032548D03*
X0170646Y0035698D03*
X0165921Y0038847D03*
D14*
X0186000Y0046918D03*
X0186000Y0018178D03*
D15*
X0198500Y0072548D03*
X0198500Y0082548D03*
X0198500Y0092548D03*
X0198500Y0102548D03*
X0198500Y0112548D03*
X0198500Y0122548D03*
X0198500Y0132548D03*
X0198500Y0142548D03*
X0181000Y0192548D03*
X0161000Y0192548D03*
X0071000Y0097548D03*
X0071000Y0087548D03*
X0071000Y0077548D03*
X0011000Y0072548D03*
X0011000Y0082548D03*
X0011000Y0092548D03*
X0011000Y0102548D03*
X0011000Y0112548D03*
X0011000Y0122548D03*
X0011000Y0132548D03*
X0011000Y0142548D03*
X0011000Y0157548D03*
X0011000Y0167548D03*
X0011000Y0177548D03*
X0011000Y0187548D03*
X0011000Y0197548D03*
X0041000Y0192548D03*
X0061000Y0192548D03*
D16*
X0086294Y0169261D02*
X0091494Y0169261D01*
X0091494Y0159261D02*
X0086294Y0159261D01*
X0086294Y0149261D02*
X0091494Y0149261D01*
X0091494Y0139261D02*
X0086294Y0139261D01*
X0086294Y0129261D02*
X0091494Y0129261D01*
X0091494Y0119261D02*
X0086294Y0119261D01*
X0086294Y0109261D02*
X0091494Y0109261D01*
X0091494Y0099261D02*
X0086294Y0099261D01*
X0086294Y0089261D02*
X0091494Y0089261D01*
X0091494Y0079261D02*
X0086294Y0079261D01*
X0086294Y0069261D02*
X0091494Y0069261D01*
X0091494Y0059261D02*
X0086294Y0059261D01*
X0086294Y0049261D02*
X0091494Y0049261D01*
X0091494Y0039261D02*
X0086294Y0039261D01*
X0116294Y0039261D02*
X0121494Y0039261D01*
X0121494Y0049261D02*
X0116294Y0049261D01*
X0116294Y0059261D02*
X0121494Y0059261D01*
X0121494Y0069261D02*
X0116294Y0069261D01*
X0116294Y0079261D02*
X0121494Y0079261D01*
X0121494Y0089261D02*
X0116294Y0089261D01*
X0116294Y0099261D02*
X0121494Y0099261D01*
X0121494Y0109261D02*
X0116294Y0109261D01*
X0116294Y0119261D02*
X0121494Y0119261D01*
X0121494Y0129261D02*
X0116294Y0129261D01*
X0116294Y0139261D02*
X0121494Y0139261D01*
X0121494Y0149261D02*
X0116294Y0149261D01*
X0116294Y0159261D02*
X0121494Y0159261D01*
X0121494Y0169261D02*
X0116294Y0169261D01*
D17*
X0120252Y0017548D03*
X0151748Y0017548D03*
D18*
X0144701Y0026249D02*
X0136000Y0017548D01*
X0128126Y0017548D02*
X0119799Y0025875D01*
X0111965Y0025875D01*
X0118894Y0032804D01*
X0118894Y0039261D01*
X0127713Y0039261D01*
X0151000Y0062548D01*
X0186000Y0062548D01*
X0191000Y0067548D01*
X0191000Y0077548D01*
X0196000Y0082548D01*
X0198050Y0082548D01*
X0198500Y0082548D01*
X0198500Y0092548D02*
X0198050Y0092548D01*
X0196000Y0092548D01*
X0186000Y0082548D01*
X0186000Y0072548D01*
X0181000Y0067548D01*
X0137181Y0067548D01*
X0118894Y0049261D01*
X0118894Y0059261D02*
X0132181Y0072548D01*
X0176000Y0072548D01*
X0181000Y0077548D01*
X0181000Y0087548D01*
X0196000Y0102548D01*
X0198050Y0102548D01*
X0198500Y0102548D01*
X0198500Y0112548D02*
X0198050Y0112548D01*
X0196000Y0112548D01*
X0176000Y0092548D01*
X0176000Y0082548D01*
X0171000Y0077548D01*
X0127181Y0077548D01*
X0118894Y0069261D01*
X0106000Y0057548D02*
X0106000Y0112548D01*
X0112713Y0119261D01*
X0106000Y0125973D01*
X0106000Y0157548D01*
X0117713Y0169261D01*
X0118894Y0169261D01*
X0106000Y0182154D01*
X0106000Y0182548D01*
X0076000Y0182548D01*
X0071000Y0177548D01*
X0071000Y0172548D01*
X0046000Y0172548D01*
X0036000Y0162548D01*
X0031000Y0162548D01*
X0021000Y0172548D01*
X0021000Y0182548D01*
X0016000Y0187548D01*
X0011000Y0187548D01*
X0016000Y0192548D02*
X0041000Y0192548D01*
X0046256Y0187292D01*
X0089091Y0187292D01*
X0088815Y0187568D01*
X0088815Y0177489D02*
X0088815Y0169339D01*
X0088894Y0169261D01*
X0088894Y0159261D02*
X0077181Y0147548D01*
X0036000Y0147548D01*
X0031000Y0142548D01*
X0011000Y0142548D01*
X0011000Y0132548D02*
X0036000Y0132548D01*
X0036000Y0137548D01*
X0041000Y0142548D01*
X0082181Y0142548D01*
X0088894Y0149261D01*
X0088894Y0139261D02*
X0087181Y0137548D01*
X0051000Y0137548D01*
X0041000Y0127548D02*
X0087181Y0127548D01*
X0088894Y0129261D01*
X0088894Y0119261D02*
X0014287Y0119261D01*
X0011000Y0122548D01*
X0011000Y0112548D02*
X0014287Y0109261D01*
X0088894Y0109261D01*
X0076000Y0097548D02*
X0071000Y0097548D01*
X0076000Y0097548D02*
X0084287Y0089261D01*
X0088894Y0089261D01*
X0088894Y0079261D02*
X0089287Y0079261D01*
X0091000Y0077548D01*
X0071000Y0077548D01*
X0064406Y0069143D02*
X0088776Y0069143D01*
X0088894Y0069261D01*
X0097713Y0069261D01*
X0101000Y0072548D01*
X0101000Y0167548D01*
X0106000Y0172548D01*
X0116000Y0182548D02*
X0111000Y0187548D01*
X0111000Y0192548D01*
X0116000Y0197548D01*
X0156000Y0197548D01*
X0161000Y0192548D01*
X0151000Y0192548D02*
X0151000Y0187804D01*
X0133835Y0170639D01*
X0132457Y0169261D01*
X0118894Y0169261D01*
X0118894Y0149261D02*
X0191000Y0149261D01*
X0191787Y0149261D01*
X0198500Y0142548D01*
X0191787Y0139261D02*
X0198050Y0132998D01*
X0198500Y0132548D01*
X0191787Y0129261D02*
X0198050Y0122998D01*
X0198500Y0122548D01*
X0191787Y0129261D02*
X0118894Y0129261D01*
X0118894Y0119261D02*
X0112713Y0119261D01*
X0118894Y0109261D02*
X0179386Y0109261D01*
X0179465Y0109182D01*
X0171000Y0102548D02*
X0131000Y0102548D01*
X0127713Y0099261D01*
X0118894Y0099261D01*
X0118894Y0089261D02*
X0139839Y0089261D01*
X0106000Y0057548D02*
X0097713Y0049261D01*
X0088894Y0049261D01*
X0087181Y0047548D01*
X0071000Y0047548D01*
X0066000Y0047548D01*
X0051000Y0062548D01*
X0051000Y0077548D01*
X0046000Y0082548D01*
X0011000Y0082548D01*
X0011000Y0092548D02*
X0021000Y0092548D01*
X0026000Y0087548D01*
X0046000Y0087548D01*
X0056000Y0077548D01*
X0056000Y0065304D01*
X0056354Y0064950D01*
X0066000Y0064950D01*
X0061669Y0060619D01*
X0061669Y0059064D01*
X0066000Y0064950D02*
X0083205Y0064950D01*
X0088894Y0059261D01*
X0088894Y0039261D02*
X0094287Y0039261D01*
X0101000Y0032548D01*
X0107161Y0025875D02*
X0100547Y0019261D01*
X0107161Y0025875D02*
X0111965Y0025875D01*
X0093047Y0014261D02*
X0089071Y0018237D01*
X0083402Y0018237D01*
X0083402Y0025146D01*
X0071000Y0037548D01*
X0071000Y0047548D01*
X0051000Y0052548D02*
X0035587Y0052548D01*
X0033146Y0050107D01*
X0033146Y0030658D01*
X0016787Y0014300D01*
X0016787Y0024300D02*
X0026000Y0033513D01*
X0026000Y0037548D01*
X0035016Y0026564D02*
X0041000Y0032548D01*
X0041000Y0037548D01*
X0035016Y0026564D02*
X0035016Y0024497D01*
X0035173Y0014654D02*
X0035016Y0014497D01*
X0035173Y0014654D02*
X0057240Y0014654D01*
X0074071Y0014654D01*
X0074681Y0015265D01*
X0075685Y0014261D01*
X0093047Y0014261D01*
X0144701Y0026249D02*
X0165921Y0026249D01*
X0170646Y0029398D02*
X0172850Y0029398D01*
X0176000Y0032548D01*
X0176000Y0053355D01*
X0179465Y0056820D01*
X0166000Y0047548D02*
X0170646Y0042902D01*
X0170646Y0035698D01*
X0165921Y0032548D02*
X0156000Y0032548D01*
X0151000Y0047548D02*
X0166000Y0047548D01*
X0191787Y0139261D02*
X0118894Y0139261D01*
X0061000Y0077548D02*
X0061000Y0072548D01*
X0064406Y0069143D01*
X0061000Y0077548D02*
X0046000Y0092548D01*
X0031000Y0092548D01*
X0026000Y0097548D01*
X0016000Y0097548D01*
X0011000Y0102548D01*
X0026000Y0152548D02*
X0041000Y0152548D01*
X0051000Y0157548D02*
X0026000Y0157548D01*
X0016000Y0167548D01*
X0011000Y0167548D01*
X0011000Y0157548D02*
X0021000Y0157548D01*
X0026000Y0152548D01*
X0031000Y0172548D02*
X0031000Y0182548D01*
X0041000Y0192548D01*
X0016000Y0192548D02*
X0011000Y0197548D01*
D19*
X0051000Y0157548D03*
X0041000Y0152548D03*
X0051000Y0137548D03*
X0041000Y0127548D03*
X0088815Y0177489D03*
X0088815Y0187568D03*
X0106000Y0172548D03*
X0116000Y0182548D03*
X0179465Y0109182D03*
X0171000Y0102548D03*
X0179465Y0056820D03*
X0156000Y0032548D03*
X0151000Y0047548D03*
X0101000Y0032548D03*
X0061669Y0059064D03*
X0051000Y0052548D03*
M02*
