G75*
%MOIN*%
%OFA0B0*%
%FSLAX25Y25*%
%IPPOS*%
%LPD*%
%AMOC8*
5,1,8,0,0,1.08239X$1,22.5*
%
%ADD10C,0.00000*%
%ADD11OC8,0.05600*%
%ADD12C,0.05600*%
%ADD13C,0.05550*%
%ADD14C,0.11620*%
%ADD15C,0.07800*%
%ADD16C,0.05600*%
%ADD17C,0.06337*%
D10*
X0006000Y0007548D02*
X0006000Y0204398D01*
X0202850Y0204398D01*
X0202850Y0007548D01*
X0006000Y0007548D01*
D11*
X0016787Y0014300D03*
X0016787Y0024300D03*
X0026000Y0037548D03*
X0035016Y0024497D03*
X0035016Y0014497D03*
X0041000Y0037548D03*
X0057240Y0034654D03*
X0071000Y0047548D03*
X0071000Y0057548D03*
X0041000Y0077548D03*
X0026000Y0077548D03*
X0074681Y0025265D03*
X0074681Y0015265D03*
X0093047Y0014261D03*
X0100547Y0019261D03*
X0093047Y0024261D03*
X0111965Y0025875D03*
X0111965Y0015875D03*
X0159839Y0089261D03*
X0133835Y0160639D03*
X0133835Y0170639D03*
X0151000Y0192548D03*
X0111000Y0192548D03*
X0071000Y0172548D03*
X0031000Y0172548D03*
D12*
X0139839Y0089261D03*
X0057240Y0014654D03*
D13*
X0128126Y0017548D03*
X0136000Y0017548D03*
X0143874Y0017548D03*
X0165921Y0026249D03*
X0170646Y0029398D03*
X0165921Y0032548D03*
X0170646Y0035698D03*
X0165921Y0038847D03*
D14*
X0186000Y0046918D03*
X0186000Y0018178D03*
D15*
X0198500Y0072548D03*
X0198500Y0082548D03*
X0198500Y0092548D03*
X0198500Y0102548D03*
X0198500Y0112548D03*
X0198500Y0122548D03*
X0198500Y0132548D03*
X0198500Y0142548D03*
X0181000Y0192548D03*
X0161000Y0192548D03*
X0071000Y0097548D03*
X0071000Y0087548D03*
X0071000Y0077548D03*
X0011000Y0072548D03*
X0011000Y0082548D03*
X0011000Y0092548D03*
X0011000Y0102548D03*
X0011000Y0112548D03*
X0011000Y0122548D03*
X0011000Y0132548D03*
X0011000Y0142548D03*
X0011000Y0157548D03*
X0011000Y0167548D03*
X0011000Y0177548D03*
X0011000Y0187548D03*
X0011000Y0197548D03*
X0041000Y0192548D03*
X0061000Y0192548D03*
D16*
X0086294Y0169261D02*
X0091494Y0169261D01*
X0091494Y0159261D02*
X0086294Y0159261D01*
X0086294Y0149261D02*
X0091494Y0149261D01*
X0091494Y0139261D02*
X0086294Y0139261D01*
X0086294Y0129261D02*
X0091494Y0129261D01*
X0091494Y0119261D02*
X0086294Y0119261D01*
X0086294Y0109261D02*
X0091494Y0109261D01*
X0091494Y0099261D02*
X0086294Y0099261D01*
X0086294Y0089261D02*
X0091494Y0089261D01*
X0091494Y0079261D02*
X0086294Y0079261D01*
X0086294Y0069261D02*
X0091494Y0069261D01*
X0091494Y0059261D02*
X0086294Y0059261D01*
X0086294Y0049261D02*
X0091494Y0049261D01*
X0091494Y0039261D02*
X0086294Y0039261D01*
X0116294Y0039261D02*
X0121494Y0039261D01*
X0121494Y0049261D02*
X0116294Y0049261D01*
X0116294Y0059261D02*
X0121494Y0059261D01*
X0121494Y0069261D02*
X0116294Y0069261D01*
X0116294Y0079261D02*
X0121494Y0079261D01*
X0121494Y0089261D02*
X0116294Y0089261D01*
X0116294Y0099261D02*
X0121494Y0099261D01*
X0121494Y0109261D02*
X0116294Y0109261D01*
X0116294Y0119261D02*
X0121494Y0119261D01*
X0121494Y0129261D02*
X0116294Y0129261D01*
X0116294Y0139261D02*
X0121494Y0139261D01*
X0121494Y0149261D02*
X0116294Y0149261D01*
X0116294Y0159261D02*
X0121494Y0159261D01*
X0121494Y0169261D02*
X0116294Y0169261D01*
D17*
X0120252Y0017548D03*
X0151748Y0017548D03*
M02*
