G75*
%MOIN*%
%OFA0B0*%
%FSLAX25Y25*%
%IPPOS*%
%LPD*%
%AMOC8*
5,1,8,0,0,1.08239X$1,22.5*
%
%ADD10C,0.00000*%
%ADD11C,0.00600*%
%ADD12C,0.00500*%
D10*
X0006000Y0007548D02*
X0006000Y0204398D01*
X0202850Y0204398D01*
X0202850Y0007548D01*
X0006000Y0007548D01*
D11*
X0020892Y0069226D02*
X0022670Y0069226D01*
X0022670Y0075626D01*
X0020892Y0075626D01*
X0020810Y0075624D01*
X0020728Y0075618D01*
X0020646Y0075609D01*
X0020565Y0075596D01*
X0020485Y0075579D01*
X0020405Y0075558D01*
X0020327Y0075534D01*
X0020250Y0075506D01*
X0020174Y0075475D01*
X0020099Y0075440D01*
X0020027Y0075401D01*
X0019956Y0075360D01*
X0019887Y0075315D01*
X0019821Y0075267D01*
X0019756Y0075216D01*
X0019694Y0075162D01*
X0019635Y0075105D01*
X0019578Y0075046D01*
X0019524Y0074984D01*
X0019473Y0074919D01*
X0019425Y0074853D01*
X0019380Y0074784D01*
X0019339Y0074713D01*
X0019300Y0074641D01*
X0019265Y0074566D01*
X0019234Y0074490D01*
X0019206Y0074413D01*
X0019182Y0074335D01*
X0019161Y0074255D01*
X0019144Y0074175D01*
X0019131Y0074094D01*
X0019122Y0074012D01*
X0019116Y0073930D01*
X0019114Y0073848D01*
X0019114Y0071004D01*
X0019116Y0070922D01*
X0019122Y0070840D01*
X0019131Y0070758D01*
X0019144Y0070677D01*
X0019161Y0070597D01*
X0019182Y0070517D01*
X0019206Y0070439D01*
X0019234Y0070362D01*
X0019265Y0070286D01*
X0019300Y0070211D01*
X0019339Y0070139D01*
X0019380Y0070068D01*
X0019425Y0069999D01*
X0019473Y0069933D01*
X0019524Y0069868D01*
X0019578Y0069806D01*
X0019635Y0069747D01*
X0019694Y0069690D01*
X0019756Y0069636D01*
X0019821Y0069585D01*
X0019887Y0069537D01*
X0019956Y0069492D01*
X0020027Y0069451D01*
X0020099Y0069412D01*
X0020174Y0069377D01*
X0020250Y0069346D01*
X0020327Y0069318D01*
X0020405Y0069294D01*
X0020485Y0069273D01*
X0020565Y0069256D01*
X0020646Y0069243D01*
X0020728Y0069234D01*
X0020810Y0069228D01*
X0020892Y0069226D01*
X0025679Y0069226D02*
X0025679Y0075626D01*
X0029234Y0075626D02*
X0025679Y0069226D01*
X0029234Y0069226D02*
X0029234Y0075626D01*
X0032243Y0075626D02*
X0034376Y0075626D01*
X0034450Y0075624D01*
X0034525Y0075618D01*
X0034598Y0075608D01*
X0034672Y0075595D01*
X0034744Y0075578D01*
X0034815Y0075556D01*
X0034886Y0075532D01*
X0034954Y0075503D01*
X0035022Y0075471D01*
X0035087Y0075435D01*
X0035150Y0075397D01*
X0035212Y0075354D01*
X0035271Y0075309D01*
X0035328Y0075261D01*
X0035382Y0075210D01*
X0035433Y0075156D01*
X0035481Y0075099D01*
X0035526Y0075040D01*
X0035569Y0074978D01*
X0035607Y0074915D01*
X0035643Y0074850D01*
X0035675Y0074782D01*
X0035704Y0074714D01*
X0035728Y0074643D01*
X0035750Y0074572D01*
X0035767Y0074500D01*
X0035780Y0074426D01*
X0035790Y0074353D01*
X0035796Y0074278D01*
X0035798Y0074204D01*
X0035798Y0070648D01*
X0035796Y0070574D01*
X0035790Y0070499D01*
X0035780Y0070426D01*
X0035767Y0070352D01*
X0035750Y0070280D01*
X0035728Y0070209D01*
X0035704Y0070138D01*
X0035675Y0070070D01*
X0035643Y0070002D01*
X0035607Y0069937D01*
X0035569Y0069874D01*
X0035526Y0069812D01*
X0035481Y0069753D01*
X0035433Y0069696D01*
X0035382Y0069642D01*
X0035328Y0069591D01*
X0035271Y0069543D01*
X0035212Y0069498D01*
X0035150Y0069455D01*
X0035087Y0069417D01*
X0035022Y0069381D01*
X0034954Y0069349D01*
X0034886Y0069320D01*
X0034815Y0069296D01*
X0034744Y0069274D01*
X0034672Y0069257D01*
X0034598Y0069244D01*
X0034525Y0069234D01*
X0034450Y0069228D01*
X0034376Y0069226D01*
X0032243Y0069226D01*
X0032243Y0072782D01*
X0033310Y0072782D01*
X0034021Y0079226D02*
X0035798Y0079226D01*
X0034021Y0079226D02*
X0033938Y0079228D01*
X0033855Y0079234D01*
X0033772Y0079244D01*
X0033689Y0079257D01*
X0033608Y0079275D01*
X0033527Y0079296D01*
X0033448Y0079321D01*
X0033370Y0079350D01*
X0033293Y0079382D01*
X0033218Y0079418D01*
X0033144Y0079457D01*
X0033073Y0079500D01*
X0033003Y0079546D01*
X0032936Y0079596D01*
X0032871Y0079648D01*
X0032809Y0079703D01*
X0032749Y0079762D01*
X0032692Y0079823D01*
X0032638Y0079886D01*
X0032587Y0079952D01*
X0032540Y0080021D01*
X0032495Y0080091D01*
X0032454Y0080164D01*
X0032417Y0080238D01*
X0032382Y0080314D01*
X0032352Y0080392D01*
X0032325Y0080470D01*
X0032302Y0080551D01*
X0032282Y0080632D01*
X0032267Y0080714D01*
X0032255Y0080796D01*
X0032247Y0080879D01*
X0032243Y0080962D01*
X0032243Y0081046D01*
X0032247Y0081129D01*
X0032255Y0081212D01*
X0032267Y0081294D01*
X0032282Y0081376D01*
X0032302Y0081457D01*
X0032325Y0081538D01*
X0032352Y0081616D01*
X0032382Y0081694D01*
X0032417Y0081770D01*
X0032454Y0081844D01*
X0032495Y0081917D01*
X0032540Y0081987D01*
X0032587Y0082056D01*
X0032638Y0082122D01*
X0032692Y0082185D01*
X0032749Y0082246D01*
X0032809Y0082305D01*
X0032871Y0082360D01*
X0032936Y0082412D01*
X0033003Y0082462D01*
X0033073Y0082508D01*
X0033144Y0082551D01*
X0033218Y0082590D01*
X0033293Y0082626D01*
X0033370Y0082658D01*
X0033448Y0082687D01*
X0033527Y0082712D01*
X0033608Y0082733D01*
X0033689Y0082751D01*
X0033772Y0082764D01*
X0033855Y0082774D01*
X0033938Y0082780D01*
X0034021Y0082782D01*
X0033665Y0082782D02*
X0035087Y0082782D01*
X0033665Y0082782D02*
X0033591Y0082784D01*
X0033516Y0082790D01*
X0033443Y0082800D01*
X0033369Y0082813D01*
X0033297Y0082830D01*
X0033226Y0082852D01*
X0033155Y0082876D01*
X0033087Y0082905D01*
X0033019Y0082937D01*
X0032954Y0082973D01*
X0032891Y0083011D01*
X0032829Y0083054D01*
X0032770Y0083099D01*
X0032713Y0083147D01*
X0032659Y0083198D01*
X0032608Y0083252D01*
X0032560Y0083309D01*
X0032515Y0083368D01*
X0032472Y0083430D01*
X0032434Y0083493D01*
X0032398Y0083558D01*
X0032366Y0083626D01*
X0032337Y0083694D01*
X0032313Y0083765D01*
X0032291Y0083836D01*
X0032274Y0083908D01*
X0032261Y0083982D01*
X0032251Y0084055D01*
X0032245Y0084130D01*
X0032243Y0084204D01*
X0032245Y0084278D01*
X0032251Y0084353D01*
X0032261Y0084426D01*
X0032274Y0084500D01*
X0032291Y0084572D01*
X0032313Y0084643D01*
X0032337Y0084714D01*
X0032366Y0084782D01*
X0032398Y0084850D01*
X0032434Y0084915D01*
X0032472Y0084978D01*
X0032515Y0085040D01*
X0032560Y0085099D01*
X0032608Y0085156D01*
X0032659Y0085210D01*
X0032713Y0085261D01*
X0032770Y0085309D01*
X0032829Y0085354D01*
X0032891Y0085397D01*
X0032954Y0085435D01*
X0033019Y0085471D01*
X0033087Y0085503D01*
X0033155Y0085532D01*
X0033226Y0085556D01*
X0033297Y0085578D01*
X0033369Y0085595D01*
X0033443Y0085608D01*
X0033516Y0085618D01*
X0033591Y0085624D01*
X0033665Y0085626D01*
X0035798Y0085626D01*
X0035798Y0089226D02*
X0033665Y0095626D01*
X0031532Y0089226D01*
X0032065Y0090826D02*
X0035265Y0090826D01*
X0029289Y0090648D02*
X0025733Y0090648D01*
X0026800Y0092070D02*
X0026800Y0089226D01*
X0029289Y0090648D02*
X0027867Y0095626D01*
X0027444Y0099226D02*
X0027444Y0102070D01*
X0026377Y0100648D02*
X0029933Y0100648D01*
X0028510Y0105626D01*
X0028155Y0109226D02*
X0029933Y0109226D01*
X0028155Y0109226D02*
X0028072Y0109228D01*
X0027989Y0109234D01*
X0027906Y0109244D01*
X0027823Y0109257D01*
X0027742Y0109275D01*
X0027661Y0109296D01*
X0027582Y0109321D01*
X0027504Y0109350D01*
X0027427Y0109382D01*
X0027352Y0109418D01*
X0027278Y0109457D01*
X0027207Y0109500D01*
X0027137Y0109546D01*
X0027070Y0109596D01*
X0027005Y0109648D01*
X0026943Y0109703D01*
X0026883Y0109762D01*
X0026826Y0109823D01*
X0026772Y0109886D01*
X0026721Y0109952D01*
X0026674Y0110021D01*
X0026629Y0110091D01*
X0026588Y0110164D01*
X0026551Y0110238D01*
X0026516Y0110314D01*
X0026486Y0110392D01*
X0026459Y0110470D01*
X0026436Y0110551D01*
X0026416Y0110632D01*
X0026401Y0110714D01*
X0026389Y0110796D01*
X0026381Y0110879D01*
X0026377Y0110962D01*
X0026377Y0111046D01*
X0026381Y0111129D01*
X0026389Y0111212D01*
X0026401Y0111294D01*
X0026416Y0111376D01*
X0026436Y0111457D01*
X0026459Y0111538D01*
X0026486Y0111616D01*
X0026516Y0111694D01*
X0026551Y0111770D01*
X0026588Y0111844D01*
X0026629Y0111917D01*
X0026674Y0111987D01*
X0026721Y0112056D01*
X0026772Y0112122D01*
X0026826Y0112185D01*
X0026883Y0112246D01*
X0026943Y0112305D01*
X0027005Y0112360D01*
X0027070Y0112412D01*
X0027137Y0112462D01*
X0027207Y0112508D01*
X0027278Y0112551D01*
X0027352Y0112590D01*
X0027427Y0112626D01*
X0027504Y0112658D01*
X0027582Y0112687D01*
X0027661Y0112712D01*
X0027742Y0112733D01*
X0027823Y0112751D01*
X0027906Y0112764D01*
X0027989Y0112774D01*
X0028072Y0112780D01*
X0028155Y0112782D01*
X0027799Y0112782D02*
X0029221Y0112782D01*
X0027799Y0112782D02*
X0027725Y0112784D01*
X0027650Y0112790D01*
X0027577Y0112800D01*
X0027503Y0112813D01*
X0027431Y0112830D01*
X0027360Y0112852D01*
X0027289Y0112876D01*
X0027221Y0112905D01*
X0027153Y0112937D01*
X0027088Y0112973D01*
X0027025Y0113011D01*
X0026963Y0113054D01*
X0026904Y0113099D01*
X0026847Y0113147D01*
X0026793Y0113198D01*
X0026742Y0113252D01*
X0026694Y0113309D01*
X0026649Y0113368D01*
X0026606Y0113430D01*
X0026568Y0113493D01*
X0026532Y0113558D01*
X0026500Y0113626D01*
X0026471Y0113694D01*
X0026447Y0113765D01*
X0026425Y0113836D01*
X0026408Y0113908D01*
X0026395Y0113982D01*
X0026385Y0114055D01*
X0026379Y0114130D01*
X0026377Y0114204D01*
X0026379Y0114278D01*
X0026385Y0114353D01*
X0026395Y0114426D01*
X0026408Y0114500D01*
X0026425Y0114572D01*
X0026447Y0114643D01*
X0026471Y0114714D01*
X0026500Y0114782D01*
X0026532Y0114850D01*
X0026568Y0114915D01*
X0026606Y0114978D01*
X0026649Y0115040D01*
X0026694Y0115099D01*
X0026742Y0115156D01*
X0026793Y0115210D01*
X0026847Y0115261D01*
X0026904Y0115309D01*
X0026963Y0115354D01*
X0027025Y0115397D01*
X0027088Y0115435D01*
X0027153Y0115471D01*
X0027221Y0115503D01*
X0027289Y0115532D01*
X0027360Y0115556D01*
X0027431Y0115578D01*
X0027503Y0115595D01*
X0027577Y0115608D01*
X0027650Y0115618D01*
X0027725Y0115624D01*
X0027799Y0115626D01*
X0029933Y0115626D01*
X0029933Y0119226D02*
X0026377Y0119226D01*
X0029933Y0119226D02*
X0026910Y0122782D01*
X0027977Y0125626D02*
X0028066Y0125624D01*
X0028155Y0125618D01*
X0028244Y0125609D01*
X0028332Y0125595D01*
X0028419Y0125578D01*
X0028506Y0125557D01*
X0028592Y0125532D01*
X0028676Y0125504D01*
X0028759Y0125471D01*
X0028841Y0125436D01*
X0028921Y0125396D01*
X0028999Y0125354D01*
X0029076Y0125308D01*
X0029150Y0125259D01*
X0029222Y0125206D01*
X0029292Y0125151D01*
X0029359Y0125092D01*
X0029424Y0125031D01*
X0029486Y0124967D01*
X0029545Y0124900D01*
X0029601Y0124831D01*
X0029654Y0124759D01*
X0029704Y0124685D01*
X0029751Y0124609D01*
X0029794Y0124532D01*
X0029834Y0124452D01*
X0029871Y0124370D01*
X0029904Y0124288D01*
X0029933Y0124203D01*
X0026910Y0122781D02*
X0026853Y0122839D01*
X0026797Y0122900D01*
X0026745Y0122963D01*
X0026696Y0123028D01*
X0026650Y0123096D01*
X0026608Y0123166D01*
X0026568Y0123238D01*
X0026533Y0123311D01*
X0026500Y0123387D01*
X0026472Y0123463D01*
X0026447Y0123541D01*
X0026426Y0123620D01*
X0026408Y0123700D01*
X0026395Y0123781D01*
X0026385Y0123862D01*
X0026379Y0123944D01*
X0026377Y0124026D01*
X0026379Y0124105D01*
X0026385Y0124183D01*
X0026394Y0124261D01*
X0026408Y0124338D01*
X0026425Y0124415D01*
X0026446Y0124490D01*
X0026471Y0124565D01*
X0026499Y0124638D01*
X0026531Y0124710D01*
X0026566Y0124780D01*
X0026605Y0124849D01*
X0026647Y0124915D01*
X0026692Y0124979D01*
X0026740Y0125041D01*
X0026791Y0125100D01*
X0026846Y0125157D01*
X0026903Y0125212D01*
X0026962Y0125263D01*
X0027024Y0125311D01*
X0027088Y0125356D01*
X0027154Y0125398D01*
X0027223Y0125437D01*
X0027293Y0125472D01*
X0027365Y0125504D01*
X0027438Y0125532D01*
X0027513Y0125557D01*
X0027588Y0125578D01*
X0027665Y0125595D01*
X0027742Y0125609D01*
X0027820Y0125618D01*
X0027898Y0125624D01*
X0027977Y0125626D01*
X0027511Y0129226D02*
X0027511Y0135626D01*
X0029289Y0134204D01*
X0032065Y0130826D02*
X0035265Y0130826D01*
X0035798Y0129226D02*
X0033665Y0135626D01*
X0031532Y0129226D01*
X0029289Y0129226D02*
X0025733Y0129226D01*
X0034021Y0125626D02*
X0035798Y0125626D01*
X0035798Y0119226D01*
X0034021Y0119226D01*
X0033938Y0119228D01*
X0033855Y0119234D01*
X0033772Y0119244D01*
X0033689Y0119257D01*
X0033608Y0119275D01*
X0033527Y0119296D01*
X0033448Y0119321D01*
X0033370Y0119350D01*
X0033293Y0119382D01*
X0033218Y0119418D01*
X0033144Y0119457D01*
X0033073Y0119500D01*
X0033003Y0119546D01*
X0032936Y0119596D01*
X0032871Y0119648D01*
X0032809Y0119703D01*
X0032749Y0119762D01*
X0032692Y0119823D01*
X0032638Y0119886D01*
X0032587Y0119952D01*
X0032540Y0120021D01*
X0032495Y0120091D01*
X0032454Y0120164D01*
X0032417Y0120238D01*
X0032382Y0120314D01*
X0032352Y0120392D01*
X0032325Y0120470D01*
X0032302Y0120551D01*
X0032282Y0120632D01*
X0032267Y0120714D01*
X0032255Y0120796D01*
X0032247Y0120879D01*
X0032243Y0120962D01*
X0032243Y0121046D01*
X0032247Y0121129D01*
X0032255Y0121212D01*
X0032267Y0121294D01*
X0032282Y0121376D01*
X0032302Y0121457D01*
X0032325Y0121538D01*
X0032352Y0121616D01*
X0032382Y0121694D01*
X0032417Y0121770D01*
X0032454Y0121844D01*
X0032495Y0121917D01*
X0032540Y0121987D01*
X0032587Y0122056D01*
X0032638Y0122122D01*
X0032692Y0122185D01*
X0032749Y0122246D01*
X0032809Y0122305D01*
X0032871Y0122360D01*
X0032936Y0122412D01*
X0033003Y0122462D01*
X0033073Y0122508D01*
X0033144Y0122551D01*
X0033218Y0122590D01*
X0033293Y0122626D01*
X0033370Y0122658D01*
X0033448Y0122687D01*
X0033527Y0122712D01*
X0033608Y0122733D01*
X0033689Y0122751D01*
X0033772Y0122764D01*
X0033855Y0122774D01*
X0033938Y0122780D01*
X0034021Y0122782D01*
X0035798Y0122782D01*
X0034021Y0122782D02*
X0033947Y0122784D01*
X0033872Y0122790D01*
X0033799Y0122800D01*
X0033725Y0122813D01*
X0033653Y0122830D01*
X0033582Y0122852D01*
X0033511Y0122876D01*
X0033443Y0122905D01*
X0033375Y0122937D01*
X0033310Y0122973D01*
X0033247Y0123011D01*
X0033185Y0123054D01*
X0033126Y0123099D01*
X0033069Y0123147D01*
X0033015Y0123198D01*
X0032964Y0123252D01*
X0032916Y0123309D01*
X0032871Y0123368D01*
X0032828Y0123430D01*
X0032790Y0123493D01*
X0032754Y0123558D01*
X0032722Y0123626D01*
X0032693Y0123694D01*
X0032669Y0123765D01*
X0032647Y0123836D01*
X0032630Y0123908D01*
X0032617Y0123982D01*
X0032607Y0124055D01*
X0032601Y0124130D01*
X0032599Y0124204D01*
X0032601Y0124278D01*
X0032607Y0124353D01*
X0032617Y0124426D01*
X0032630Y0124500D01*
X0032647Y0124572D01*
X0032669Y0124643D01*
X0032693Y0124714D01*
X0032722Y0124782D01*
X0032754Y0124850D01*
X0032790Y0124915D01*
X0032828Y0124978D01*
X0032871Y0125040D01*
X0032916Y0125099D01*
X0032964Y0125156D01*
X0033015Y0125210D01*
X0033069Y0125261D01*
X0033126Y0125309D01*
X0033185Y0125354D01*
X0033247Y0125397D01*
X0033310Y0125435D01*
X0033375Y0125471D01*
X0033443Y0125503D01*
X0033511Y0125532D01*
X0033582Y0125556D01*
X0033653Y0125578D01*
X0033725Y0125595D01*
X0033799Y0125608D01*
X0033872Y0125618D01*
X0033947Y0125624D01*
X0034021Y0125626D01*
X0034021Y0115626D02*
X0035798Y0115626D01*
X0035798Y0109226D01*
X0034021Y0109226D01*
X0033938Y0109228D01*
X0033855Y0109234D01*
X0033772Y0109244D01*
X0033689Y0109257D01*
X0033608Y0109275D01*
X0033527Y0109296D01*
X0033448Y0109321D01*
X0033370Y0109350D01*
X0033293Y0109382D01*
X0033218Y0109418D01*
X0033144Y0109457D01*
X0033073Y0109500D01*
X0033003Y0109546D01*
X0032936Y0109596D01*
X0032871Y0109648D01*
X0032809Y0109703D01*
X0032749Y0109762D01*
X0032692Y0109823D01*
X0032638Y0109886D01*
X0032587Y0109952D01*
X0032540Y0110021D01*
X0032495Y0110091D01*
X0032454Y0110164D01*
X0032417Y0110238D01*
X0032382Y0110314D01*
X0032352Y0110392D01*
X0032325Y0110470D01*
X0032302Y0110551D01*
X0032282Y0110632D01*
X0032267Y0110714D01*
X0032255Y0110796D01*
X0032247Y0110879D01*
X0032243Y0110962D01*
X0032243Y0111046D01*
X0032247Y0111129D01*
X0032255Y0111212D01*
X0032267Y0111294D01*
X0032282Y0111376D01*
X0032302Y0111457D01*
X0032325Y0111538D01*
X0032352Y0111616D01*
X0032382Y0111694D01*
X0032417Y0111770D01*
X0032454Y0111844D01*
X0032495Y0111917D01*
X0032540Y0111987D01*
X0032587Y0112056D01*
X0032638Y0112122D01*
X0032692Y0112185D01*
X0032749Y0112246D01*
X0032809Y0112305D01*
X0032871Y0112360D01*
X0032936Y0112412D01*
X0033003Y0112462D01*
X0033073Y0112508D01*
X0033144Y0112551D01*
X0033218Y0112590D01*
X0033293Y0112626D01*
X0033370Y0112658D01*
X0033448Y0112687D01*
X0033527Y0112712D01*
X0033608Y0112733D01*
X0033689Y0112751D01*
X0033772Y0112764D01*
X0033855Y0112774D01*
X0033938Y0112780D01*
X0034021Y0112782D01*
X0035798Y0112782D01*
X0034021Y0112782D02*
X0033947Y0112784D01*
X0033872Y0112790D01*
X0033799Y0112800D01*
X0033725Y0112813D01*
X0033653Y0112830D01*
X0033582Y0112852D01*
X0033511Y0112876D01*
X0033443Y0112905D01*
X0033375Y0112937D01*
X0033310Y0112973D01*
X0033247Y0113011D01*
X0033185Y0113054D01*
X0033126Y0113099D01*
X0033069Y0113147D01*
X0033015Y0113198D01*
X0032964Y0113252D01*
X0032916Y0113309D01*
X0032871Y0113368D01*
X0032828Y0113430D01*
X0032790Y0113493D01*
X0032754Y0113558D01*
X0032722Y0113626D01*
X0032693Y0113694D01*
X0032669Y0113765D01*
X0032647Y0113836D01*
X0032630Y0113908D01*
X0032617Y0113982D01*
X0032607Y0114055D01*
X0032601Y0114130D01*
X0032599Y0114204D01*
X0032601Y0114278D01*
X0032607Y0114353D01*
X0032617Y0114426D01*
X0032630Y0114500D01*
X0032647Y0114572D01*
X0032669Y0114643D01*
X0032693Y0114714D01*
X0032722Y0114782D01*
X0032754Y0114850D01*
X0032790Y0114915D01*
X0032828Y0114978D01*
X0032871Y0115040D01*
X0032916Y0115099D01*
X0032964Y0115156D01*
X0033015Y0115210D01*
X0033069Y0115261D01*
X0033126Y0115309D01*
X0033185Y0115354D01*
X0033247Y0115397D01*
X0033310Y0115435D01*
X0033375Y0115471D01*
X0033443Y0115503D01*
X0033511Y0115532D01*
X0033582Y0115556D01*
X0033653Y0115578D01*
X0033725Y0115595D01*
X0033799Y0115608D01*
X0033872Y0115618D01*
X0033947Y0115624D01*
X0034021Y0115626D01*
X0034021Y0105626D02*
X0035798Y0105626D01*
X0035798Y0099226D01*
X0034021Y0099226D01*
X0033938Y0099228D01*
X0033855Y0099234D01*
X0033772Y0099244D01*
X0033689Y0099257D01*
X0033608Y0099275D01*
X0033527Y0099296D01*
X0033448Y0099321D01*
X0033370Y0099350D01*
X0033293Y0099382D01*
X0033218Y0099418D01*
X0033144Y0099457D01*
X0033073Y0099500D01*
X0033003Y0099546D01*
X0032936Y0099596D01*
X0032871Y0099648D01*
X0032809Y0099703D01*
X0032749Y0099762D01*
X0032692Y0099823D01*
X0032638Y0099886D01*
X0032587Y0099952D01*
X0032540Y0100021D01*
X0032495Y0100091D01*
X0032454Y0100164D01*
X0032417Y0100238D01*
X0032382Y0100314D01*
X0032352Y0100392D01*
X0032325Y0100470D01*
X0032302Y0100551D01*
X0032282Y0100632D01*
X0032267Y0100714D01*
X0032255Y0100796D01*
X0032247Y0100879D01*
X0032243Y0100962D01*
X0032243Y0101046D01*
X0032247Y0101129D01*
X0032255Y0101212D01*
X0032267Y0101294D01*
X0032282Y0101376D01*
X0032302Y0101457D01*
X0032325Y0101538D01*
X0032352Y0101616D01*
X0032382Y0101694D01*
X0032417Y0101770D01*
X0032454Y0101844D01*
X0032495Y0101917D01*
X0032540Y0101987D01*
X0032587Y0102056D01*
X0032638Y0102122D01*
X0032692Y0102185D01*
X0032749Y0102246D01*
X0032809Y0102305D01*
X0032871Y0102360D01*
X0032936Y0102412D01*
X0033003Y0102462D01*
X0033073Y0102508D01*
X0033144Y0102551D01*
X0033218Y0102590D01*
X0033293Y0102626D01*
X0033370Y0102658D01*
X0033448Y0102687D01*
X0033527Y0102712D01*
X0033608Y0102733D01*
X0033689Y0102751D01*
X0033772Y0102764D01*
X0033855Y0102774D01*
X0033938Y0102780D01*
X0034021Y0102782D01*
X0035798Y0102782D01*
X0034021Y0102782D02*
X0033947Y0102784D01*
X0033872Y0102790D01*
X0033799Y0102800D01*
X0033725Y0102813D01*
X0033653Y0102830D01*
X0033582Y0102852D01*
X0033511Y0102876D01*
X0033443Y0102905D01*
X0033375Y0102937D01*
X0033310Y0102973D01*
X0033247Y0103011D01*
X0033185Y0103054D01*
X0033126Y0103099D01*
X0033069Y0103147D01*
X0033015Y0103198D01*
X0032964Y0103252D01*
X0032916Y0103309D01*
X0032871Y0103368D01*
X0032828Y0103430D01*
X0032790Y0103493D01*
X0032754Y0103558D01*
X0032722Y0103626D01*
X0032693Y0103694D01*
X0032669Y0103765D01*
X0032647Y0103836D01*
X0032630Y0103908D01*
X0032617Y0103982D01*
X0032607Y0104055D01*
X0032601Y0104130D01*
X0032599Y0104204D01*
X0032601Y0104278D01*
X0032607Y0104353D01*
X0032617Y0104426D01*
X0032630Y0104500D01*
X0032647Y0104572D01*
X0032669Y0104643D01*
X0032693Y0104714D01*
X0032722Y0104782D01*
X0032754Y0104850D01*
X0032790Y0104915D01*
X0032828Y0104978D01*
X0032871Y0105040D01*
X0032916Y0105099D01*
X0032964Y0105156D01*
X0033015Y0105210D01*
X0033069Y0105261D01*
X0033126Y0105309D01*
X0033185Y0105354D01*
X0033247Y0105397D01*
X0033310Y0105435D01*
X0033375Y0105471D01*
X0033443Y0105503D01*
X0033511Y0105532D01*
X0033582Y0105556D01*
X0033653Y0105578D01*
X0033725Y0105595D01*
X0033799Y0105608D01*
X0033872Y0105618D01*
X0033947Y0105624D01*
X0034021Y0105626D01*
X0027183Y0085626D02*
X0025049Y0085626D01*
X0024975Y0085624D01*
X0024900Y0085618D01*
X0024827Y0085608D01*
X0024753Y0085595D01*
X0024681Y0085578D01*
X0024610Y0085556D01*
X0024539Y0085532D01*
X0024471Y0085503D01*
X0024403Y0085471D01*
X0024338Y0085435D01*
X0024275Y0085397D01*
X0024213Y0085354D01*
X0024154Y0085309D01*
X0024097Y0085261D01*
X0024043Y0085210D01*
X0023992Y0085156D01*
X0023944Y0085099D01*
X0023899Y0085040D01*
X0023856Y0084978D01*
X0023818Y0084915D01*
X0023782Y0084850D01*
X0023750Y0084782D01*
X0023721Y0084714D01*
X0023697Y0084643D01*
X0023675Y0084572D01*
X0023658Y0084500D01*
X0023645Y0084426D01*
X0023635Y0084353D01*
X0023629Y0084278D01*
X0023627Y0084204D01*
X0023629Y0084130D01*
X0023635Y0084055D01*
X0023645Y0083982D01*
X0023658Y0083908D01*
X0023675Y0083836D01*
X0023697Y0083765D01*
X0023721Y0083694D01*
X0023750Y0083626D01*
X0023782Y0083558D01*
X0023818Y0083493D01*
X0023856Y0083430D01*
X0023899Y0083368D01*
X0023944Y0083309D01*
X0023992Y0083252D01*
X0024043Y0083198D01*
X0024097Y0083147D01*
X0024154Y0083099D01*
X0024213Y0083054D01*
X0024275Y0083011D01*
X0024338Y0082973D01*
X0024403Y0082937D01*
X0024471Y0082905D01*
X0024539Y0082876D01*
X0024610Y0082852D01*
X0024681Y0082830D01*
X0024753Y0082813D01*
X0024827Y0082800D01*
X0024900Y0082790D01*
X0024975Y0082784D01*
X0025049Y0082782D01*
X0026472Y0082782D01*
X0025405Y0082782D02*
X0025322Y0082780D01*
X0025239Y0082774D01*
X0025156Y0082764D01*
X0025073Y0082751D01*
X0024992Y0082733D01*
X0024911Y0082712D01*
X0024832Y0082687D01*
X0024754Y0082658D01*
X0024677Y0082626D01*
X0024602Y0082590D01*
X0024528Y0082551D01*
X0024457Y0082508D01*
X0024387Y0082462D01*
X0024320Y0082412D01*
X0024255Y0082360D01*
X0024193Y0082305D01*
X0024133Y0082246D01*
X0024076Y0082185D01*
X0024022Y0082122D01*
X0023971Y0082056D01*
X0023924Y0081987D01*
X0023879Y0081917D01*
X0023838Y0081844D01*
X0023801Y0081770D01*
X0023766Y0081694D01*
X0023736Y0081616D01*
X0023709Y0081538D01*
X0023686Y0081457D01*
X0023666Y0081376D01*
X0023651Y0081294D01*
X0023639Y0081212D01*
X0023631Y0081129D01*
X0023627Y0081046D01*
X0023627Y0080962D01*
X0023631Y0080879D01*
X0023639Y0080796D01*
X0023651Y0080714D01*
X0023666Y0080632D01*
X0023686Y0080551D01*
X0023709Y0080470D01*
X0023736Y0080392D01*
X0023766Y0080314D01*
X0023801Y0080238D01*
X0023838Y0080164D01*
X0023879Y0080091D01*
X0023924Y0080021D01*
X0023971Y0079952D01*
X0024022Y0079886D01*
X0024076Y0079823D01*
X0024133Y0079762D01*
X0024193Y0079703D01*
X0024255Y0079648D01*
X0024320Y0079596D01*
X0024387Y0079546D01*
X0024457Y0079500D01*
X0024528Y0079457D01*
X0024602Y0079418D01*
X0024677Y0079382D01*
X0024754Y0079350D01*
X0024832Y0079321D01*
X0024911Y0079296D01*
X0024992Y0079275D01*
X0025073Y0079257D01*
X0025156Y0079244D01*
X0025239Y0079234D01*
X0025322Y0079228D01*
X0025405Y0079226D01*
X0027183Y0079226D01*
X0029535Y0079226D02*
X0029891Y0079226D01*
X0029891Y0079582D01*
X0029535Y0079582D01*
X0029535Y0079226D01*
X0019251Y0079226D02*
X0021384Y0085626D01*
X0017118Y0085626D02*
X0019251Y0079226D01*
X0031532Y0139226D02*
X0033665Y0145626D01*
X0035798Y0139226D01*
X0035265Y0140826D02*
X0032065Y0140826D01*
X0026266Y0140115D02*
X0026206Y0140242D01*
X0026150Y0140371D01*
X0026097Y0140501D01*
X0026047Y0140633D01*
X0026001Y0140766D01*
X0025959Y0140900D01*
X0025920Y0141035D01*
X0025884Y0141172D01*
X0025853Y0141309D01*
X0025825Y0141447D01*
X0025800Y0141585D01*
X0025780Y0141724D01*
X0025763Y0141864D01*
X0025750Y0142004D01*
X0025741Y0142145D01*
X0025735Y0142285D01*
X0025733Y0142426D01*
X0029289Y0142426D02*
X0029287Y0142567D01*
X0029281Y0142707D01*
X0029272Y0142848D01*
X0029259Y0142988D01*
X0029242Y0143128D01*
X0029222Y0143267D01*
X0029197Y0143405D01*
X0029169Y0143543D01*
X0029138Y0143680D01*
X0029102Y0143817D01*
X0029063Y0143952D01*
X0029021Y0144086D01*
X0028975Y0144219D01*
X0028925Y0144351D01*
X0028872Y0144481D01*
X0028816Y0144610D01*
X0028756Y0144737D01*
X0027511Y0145626D02*
X0027440Y0145624D01*
X0027369Y0145618D01*
X0027299Y0145609D01*
X0027229Y0145595D01*
X0027160Y0145578D01*
X0027093Y0145558D01*
X0027026Y0145533D01*
X0026961Y0145505D01*
X0026897Y0145474D01*
X0026835Y0145439D01*
X0026775Y0145401D01*
X0026718Y0145360D01*
X0026662Y0145316D01*
X0026609Y0145268D01*
X0026559Y0145218D01*
X0026511Y0145166D01*
X0026466Y0145111D01*
X0026425Y0145053D01*
X0026386Y0144993D01*
X0026351Y0144932D01*
X0026319Y0144868D01*
X0026291Y0144803D01*
X0026266Y0144737D01*
X0026089Y0144204D02*
X0028933Y0140648D01*
X0027511Y0139226D02*
X0027440Y0139228D01*
X0027369Y0139234D01*
X0027299Y0139243D01*
X0027229Y0139257D01*
X0027160Y0139274D01*
X0027093Y0139294D01*
X0027026Y0139319D01*
X0026961Y0139347D01*
X0026897Y0139378D01*
X0026835Y0139413D01*
X0026775Y0139451D01*
X0026718Y0139492D01*
X0026662Y0139536D01*
X0026609Y0139584D01*
X0026559Y0139634D01*
X0026511Y0139686D01*
X0026466Y0139741D01*
X0026425Y0139799D01*
X0026386Y0139859D01*
X0026351Y0139920D01*
X0026319Y0139984D01*
X0026291Y0140049D01*
X0026266Y0140115D01*
X0027511Y0139226D02*
X0027582Y0139228D01*
X0027653Y0139234D01*
X0027723Y0139243D01*
X0027793Y0139257D01*
X0027862Y0139274D01*
X0027929Y0139294D01*
X0027996Y0139319D01*
X0028061Y0139347D01*
X0028125Y0139378D01*
X0028187Y0139413D01*
X0028247Y0139451D01*
X0028305Y0139492D01*
X0028360Y0139536D01*
X0028413Y0139584D01*
X0028463Y0139634D01*
X0028511Y0139686D01*
X0028556Y0139741D01*
X0028597Y0139799D01*
X0028636Y0139859D01*
X0028671Y0139920D01*
X0028703Y0139984D01*
X0028731Y0140049D01*
X0028756Y0140115D01*
X0025733Y0142426D02*
X0025735Y0142567D01*
X0025741Y0142707D01*
X0025750Y0142848D01*
X0025763Y0142988D01*
X0025780Y0143128D01*
X0025800Y0143267D01*
X0025825Y0143405D01*
X0025853Y0143543D01*
X0025884Y0143680D01*
X0025920Y0143817D01*
X0025959Y0143952D01*
X0026001Y0144086D01*
X0026047Y0144219D01*
X0026097Y0144351D01*
X0026150Y0144481D01*
X0026206Y0144610D01*
X0026266Y0144737D01*
X0027511Y0145626D02*
X0027582Y0145624D01*
X0027653Y0145618D01*
X0027723Y0145609D01*
X0027793Y0145595D01*
X0027862Y0145578D01*
X0027929Y0145558D01*
X0027996Y0145533D01*
X0028061Y0145505D01*
X0028125Y0145474D01*
X0028187Y0145439D01*
X0028247Y0145401D01*
X0028305Y0145360D01*
X0028360Y0145316D01*
X0028413Y0145268D01*
X0028463Y0145218D01*
X0028511Y0145166D01*
X0028556Y0145111D01*
X0028597Y0145053D01*
X0028636Y0144993D01*
X0028671Y0144932D01*
X0028703Y0144868D01*
X0028731Y0144803D01*
X0028756Y0144737D01*
X0029289Y0142426D02*
X0029287Y0142285D01*
X0029281Y0142145D01*
X0029272Y0142004D01*
X0029259Y0141864D01*
X0029242Y0141724D01*
X0029222Y0141585D01*
X0029197Y0141447D01*
X0029169Y0141309D01*
X0029138Y0141172D01*
X0029102Y0141035D01*
X0029063Y0140900D01*
X0029021Y0140766D01*
X0028975Y0140633D01*
X0028925Y0140501D01*
X0028872Y0140371D01*
X0028816Y0140242D01*
X0028756Y0140115D01*
X0173623Y0141621D02*
X0173623Y0142332D01*
X0173625Y0142406D01*
X0173631Y0142481D01*
X0173641Y0142554D01*
X0173654Y0142628D01*
X0173671Y0142700D01*
X0173693Y0142771D01*
X0173717Y0142842D01*
X0173746Y0142910D01*
X0173778Y0142978D01*
X0173814Y0143043D01*
X0173852Y0143106D01*
X0173895Y0143168D01*
X0173940Y0143227D01*
X0173988Y0143284D01*
X0174039Y0143338D01*
X0174093Y0143389D01*
X0174150Y0143437D01*
X0174209Y0143482D01*
X0174271Y0143525D01*
X0174334Y0143563D01*
X0174399Y0143599D01*
X0174467Y0143631D01*
X0174535Y0143660D01*
X0174606Y0143684D01*
X0174677Y0143706D01*
X0174749Y0143723D01*
X0174823Y0143736D01*
X0174896Y0143746D01*
X0174971Y0143752D01*
X0175045Y0143754D01*
X0177178Y0143754D01*
X0177178Y0146598D01*
X0173623Y0146598D01*
X0173623Y0141621D02*
X0173625Y0141547D01*
X0173631Y0141472D01*
X0173641Y0141399D01*
X0173654Y0141325D01*
X0173671Y0141253D01*
X0173693Y0141182D01*
X0173717Y0141111D01*
X0173746Y0141043D01*
X0173778Y0140975D01*
X0173814Y0140910D01*
X0173852Y0140847D01*
X0173895Y0140785D01*
X0173940Y0140726D01*
X0173988Y0140669D01*
X0174039Y0140615D01*
X0174093Y0140564D01*
X0174150Y0140516D01*
X0174209Y0140471D01*
X0174271Y0140428D01*
X0174334Y0140390D01*
X0174399Y0140354D01*
X0174467Y0140322D01*
X0174535Y0140293D01*
X0174606Y0140269D01*
X0174677Y0140247D01*
X0174749Y0140230D01*
X0174823Y0140217D01*
X0174896Y0140207D01*
X0174971Y0140201D01*
X0175045Y0140199D01*
X0175045Y0140198D02*
X0177178Y0140198D01*
X0179777Y0140198D02*
X0183332Y0140198D01*
X0181555Y0140198D02*
X0181555Y0146598D01*
X0183332Y0145176D01*
X0187420Y0146598D02*
X0187346Y0146596D01*
X0187271Y0146590D01*
X0187198Y0146580D01*
X0187124Y0146567D01*
X0187052Y0146550D01*
X0186981Y0146528D01*
X0186910Y0146504D01*
X0186842Y0146475D01*
X0186774Y0146443D01*
X0186709Y0146407D01*
X0186646Y0146369D01*
X0186584Y0146326D01*
X0186525Y0146281D01*
X0186468Y0146233D01*
X0186414Y0146182D01*
X0186363Y0146128D01*
X0186315Y0146071D01*
X0186270Y0146012D01*
X0186227Y0145950D01*
X0186189Y0145887D01*
X0186153Y0145822D01*
X0186121Y0145754D01*
X0186092Y0145686D01*
X0186068Y0145615D01*
X0186046Y0145544D01*
X0186029Y0145472D01*
X0186016Y0145398D01*
X0186006Y0145325D01*
X0186000Y0145250D01*
X0185998Y0145176D01*
X0186000Y0145102D01*
X0186006Y0145027D01*
X0186016Y0144954D01*
X0186029Y0144880D01*
X0186046Y0144808D01*
X0186068Y0144737D01*
X0186092Y0144666D01*
X0186121Y0144598D01*
X0186153Y0144530D01*
X0186189Y0144465D01*
X0186227Y0144402D01*
X0186270Y0144340D01*
X0186315Y0144281D01*
X0186363Y0144224D01*
X0186414Y0144170D01*
X0186468Y0144119D01*
X0186525Y0144071D01*
X0186584Y0144026D01*
X0186646Y0143983D01*
X0186709Y0143945D01*
X0186774Y0143909D01*
X0186842Y0143877D01*
X0186910Y0143848D01*
X0186981Y0143824D01*
X0187052Y0143802D01*
X0187124Y0143785D01*
X0187198Y0143772D01*
X0187271Y0143762D01*
X0187346Y0143756D01*
X0187420Y0143754D01*
X0189198Y0143754D01*
X0187420Y0143754D02*
X0187337Y0143752D01*
X0187254Y0143746D01*
X0187171Y0143736D01*
X0187088Y0143723D01*
X0187007Y0143705D01*
X0186926Y0143684D01*
X0186847Y0143659D01*
X0186769Y0143630D01*
X0186692Y0143598D01*
X0186617Y0143562D01*
X0186543Y0143523D01*
X0186472Y0143480D01*
X0186402Y0143434D01*
X0186335Y0143384D01*
X0186270Y0143332D01*
X0186208Y0143277D01*
X0186148Y0143218D01*
X0186091Y0143157D01*
X0186037Y0143094D01*
X0185986Y0143028D01*
X0185939Y0142959D01*
X0185894Y0142889D01*
X0185853Y0142816D01*
X0185816Y0142742D01*
X0185781Y0142666D01*
X0185751Y0142588D01*
X0185724Y0142510D01*
X0185701Y0142429D01*
X0185681Y0142348D01*
X0185666Y0142266D01*
X0185654Y0142184D01*
X0185646Y0142101D01*
X0185642Y0142018D01*
X0185642Y0141934D01*
X0185646Y0141851D01*
X0185654Y0141768D01*
X0185666Y0141686D01*
X0185681Y0141604D01*
X0185701Y0141523D01*
X0185724Y0141442D01*
X0185751Y0141364D01*
X0185781Y0141286D01*
X0185816Y0141210D01*
X0185853Y0141136D01*
X0185894Y0141063D01*
X0185939Y0140993D01*
X0185986Y0140924D01*
X0186037Y0140858D01*
X0186091Y0140795D01*
X0186148Y0140734D01*
X0186208Y0140675D01*
X0186270Y0140620D01*
X0186335Y0140568D01*
X0186402Y0140518D01*
X0186472Y0140472D01*
X0186543Y0140429D01*
X0186617Y0140390D01*
X0186692Y0140354D01*
X0186769Y0140322D01*
X0186847Y0140293D01*
X0186926Y0140268D01*
X0187007Y0140247D01*
X0187088Y0140229D01*
X0187171Y0140216D01*
X0187254Y0140206D01*
X0187337Y0140200D01*
X0187420Y0140198D01*
X0189198Y0140198D01*
X0189198Y0146598D01*
X0187420Y0146598D01*
X0187420Y0136598D02*
X0189198Y0136598D01*
X0189198Y0130198D01*
X0187420Y0130198D01*
X0187337Y0130200D01*
X0187254Y0130206D01*
X0187171Y0130216D01*
X0187088Y0130229D01*
X0187007Y0130247D01*
X0186926Y0130268D01*
X0186847Y0130293D01*
X0186769Y0130322D01*
X0186692Y0130354D01*
X0186617Y0130390D01*
X0186543Y0130429D01*
X0186472Y0130472D01*
X0186402Y0130518D01*
X0186335Y0130568D01*
X0186270Y0130620D01*
X0186208Y0130675D01*
X0186148Y0130734D01*
X0186091Y0130795D01*
X0186037Y0130858D01*
X0185986Y0130924D01*
X0185939Y0130993D01*
X0185894Y0131063D01*
X0185853Y0131136D01*
X0185816Y0131210D01*
X0185781Y0131286D01*
X0185751Y0131364D01*
X0185724Y0131442D01*
X0185701Y0131523D01*
X0185681Y0131604D01*
X0185666Y0131686D01*
X0185654Y0131768D01*
X0185646Y0131851D01*
X0185642Y0131934D01*
X0185642Y0132018D01*
X0185646Y0132101D01*
X0185654Y0132184D01*
X0185666Y0132266D01*
X0185681Y0132348D01*
X0185701Y0132429D01*
X0185724Y0132510D01*
X0185751Y0132588D01*
X0185781Y0132666D01*
X0185816Y0132742D01*
X0185853Y0132816D01*
X0185894Y0132889D01*
X0185939Y0132959D01*
X0185986Y0133028D01*
X0186037Y0133094D01*
X0186091Y0133157D01*
X0186148Y0133218D01*
X0186208Y0133277D01*
X0186270Y0133332D01*
X0186335Y0133384D01*
X0186402Y0133434D01*
X0186472Y0133480D01*
X0186543Y0133523D01*
X0186617Y0133562D01*
X0186692Y0133598D01*
X0186769Y0133630D01*
X0186847Y0133659D01*
X0186926Y0133684D01*
X0187007Y0133705D01*
X0187088Y0133723D01*
X0187171Y0133736D01*
X0187254Y0133746D01*
X0187337Y0133752D01*
X0187420Y0133754D01*
X0189198Y0133754D01*
X0187420Y0133754D02*
X0187346Y0133756D01*
X0187271Y0133762D01*
X0187198Y0133772D01*
X0187124Y0133785D01*
X0187052Y0133802D01*
X0186981Y0133824D01*
X0186910Y0133848D01*
X0186842Y0133877D01*
X0186774Y0133909D01*
X0186709Y0133945D01*
X0186646Y0133983D01*
X0186584Y0134026D01*
X0186525Y0134071D01*
X0186468Y0134119D01*
X0186414Y0134170D01*
X0186363Y0134224D01*
X0186315Y0134281D01*
X0186270Y0134340D01*
X0186227Y0134402D01*
X0186189Y0134465D01*
X0186153Y0134530D01*
X0186121Y0134598D01*
X0186092Y0134666D01*
X0186068Y0134737D01*
X0186046Y0134808D01*
X0186029Y0134880D01*
X0186016Y0134954D01*
X0186006Y0135027D01*
X0186000Y0135102D01*
X0185998Y0135176D01*
X0186000Y0135250D01*
X0186006Y0135325D01*
X0186016Y0135398D01*
X0186029Y0135472D01*
X0186046Y0135544D01*
X0186068Y0135615D01*
X0186092Y0135686D01*
X0186121Y0135754D01*
X0186153Y0135822D01*
X0186189Y0135887D01*
X0186227Y0135950D01*
X0186270Y0136012D01*
X0186315Y0136071D01*
X0186363Y0136128D01*
X0186414Y0136182D01*
X0186468Y0136233D01*
X0186525Y0136281D01*
X0186584Y0136326D01*
X0186646Y0136369D01*
X0186709Y0136407D01*
X0186774Y0136443D01*
X0186842Y0136475D01*
X0186910Y0136504D01*
X0186981Y0136528D01*
X0187052Y0136550D01*
X0187124Y0136567D01*
X0187198Y0136580D01*
X0187271Y0136590D01*
X0187346Y0136596D01*
X0187420Y0136598D01*
X0183332Y0135176D02*
X0181555Y0136598D01*
X0181555Y0130198D01*
X0183332Y0130198D02*
X0179777Y0130198D01*
X0177178Y0131621D02*
X0173623Y0131621D01*
X0174690Y0133043D02*
X0174690Y0130198D01*
X0177178Y0131621D02*
X0175756Y0136598D01*
X0175045Y0126598D02*
X0177178Y0126598D01*
X0175045Y0126598D02*
X0174971Y0126596D01*
X0174896Y0126590D01*
X0174823Y0126580D01*
X0174749Y0126567D01*
X0174677Y0126550D01*
X0174606Y0126528D01*
X0174535Y0126504D01*
X0174467Y0126475D01*
X0174399Y0126443D01*
X0174334Y0126407D01*
X0174271Y0126369D01*
X0174209Y0126326D01*
X0174150Y0126281D01*
X0174093Y0126233D01*
X0174039Y0126182D01*
X0173988Y0126128D01*
X0173940Y0126071D01*
X0173895Y0126012D01*
X0173852Y0125950D01*
X0173814Y0125887D01*
X0173778Y0125822D01*
X0173746Y0125754D01*
X0173717Y0125686D01*
X0173693Y0125615D01*
X0173671Y0125544D01*
X0173654Y0125472D01*
X0173641Y0125398D01*
X0173631Y0125325D01*
X0173625Y0125250D01*
X0173623Y0125176D01*
X0173625Y0125102D01*
X0173631Y0125027D01*
X0173641Y0124954D01*
X0173654Y0124880D01*
X0173671Y0124808D01*
X0173693Y0124737D01*
X0173717Y0124666D01*
X0173746Y0124598D01*
X0173778Y0124530D01*
X0173814Y0124465D01*
X0173852Y0124402D01*
X0173895Y0124340D01*
X0173940Y0124281D01*
X0173988Y0124224D01*
X0174039Y0124170D01*
X0174093Y0124119D01*
X0174150Y0124071D01*
X0174209Y0124026D01*
X0174271Y0123983D01*
X0174334Y0123945D01*
X0174399Y0123909D01*
X0174467Y0123877D01*
X0174535Y0123848D01*
X0174606Y0123824D01*
X0174677Y0123802D01*
X0174749Y0123785D01*
X0174823Y0123772D01*
X0174896Y0123762D01*
X0174971Y0123756D01*
X0175045Y0123754D01*
X0176467Y0123754D01*
X0175401Y0123754D02*
X0175318Y0123752D01*
X0175235Y0123746D01*
X0175152Y0123736D01*
X0175069Y0123723D01*
X0174988Y0123705D01*
X0174907Y0123684D01*
X0174828Y0123659D01*
X0174750Y0123630D01*
X0174673Y0123598D01*
X0174598Y0123562D01*
X0174524Y0123523D01*
X0174453Y0123480D01*
X0174383Y0123434D01*
X0174316Y0123384D01*
X0174251Y0123332D01*
X0174189Y0123277D01*
X0174129Y0123218D01*
X0174072Y0123157D01*
X0174018Y0123094D01*
X0173967Y0123028D01*
X0173920Y0122959D01*
X0173875Y0122889D01*
X0173834Y0122816D01*
X0173797Y0122742D01*
X0173762Y0122666D01*
X0173732Y0122588D01*
X0173705Y0122510D01*
X0173682Y0122429D01*
X0173662Y0122348D01*
X0173647Y0122266D01*
X0173635Y0122184D01*
X0173627Y0122101D01*
X0173623Y0122018D01*
X0173623Y0121934D01*
X0173627Y0121851D01*
X0173635Y0121768D01*
X0173647Y0121686D01*
X0173662Y0121604D01*
X0173682Y0121523D01*
X0173705Y0121442D01*
X0173732Y0121364D01*
X0173762Y0121286D01*
X0173797Y0121210D01*
X0173834Y0121136D01*
X0173875Y0121063D01*
X0173920Y0120993D01*
X0173967Y0120924D01*
X0174018Y0120858D01*
X0174072Y0120795D01*
X0174129Y0120734D01*
X0174189Y0120675D01*
X0174251Y0120620D01*
X0174316Y0120568D01*
X0174383Y0120518D01*
X0174453Y0120472D01*
X0174524Y0120429D01*
X0174598Y0120390D01*
X0174673Y0120354D01*
X0174750Y0120322D01*
X0174828Y0120293D01*
X0174907Y0120268D01*
X0174988Y0120247D01*
X0175069Y0120229D01*
X0175152Y0120216D01*
X0175235Y0120206D01*
X0175318Y0120200D01*
X0175401Y0120198D01*
X0177178Y0120198D01*
X0179777Y0120198D02*
X0183332Y0120198D01*
X0181555Y0120198D02*
X0181555Y0126598D01*
X0183332Y0125176D01*
X0187420Y0126598D02*
X0187346Y0126596D01*
X0187271Y0126590D01*
X0187198Y0126580D01*
X0187124Y0126567D01*
X0187052Y0126550D01*
X0186981Y0126528D01*
X0186910Y0126504D01*
X0186842Y0126475D01*
X0186774Y0126443D01*
X0186709Y0126407D01*
X0186646Y0126369D01*
X0186584Y0126326D01*
X0186525Y0126281D01*
X0186468Y0126233D01*
X0186414Y0126182D01*
X0186363Y0126128D01*
X0186315Y0126071D01*
X0186270Y0126012D01*
X0186227Y0125950D01*
X0186189Y0125887D01*
X0186153Y0125822D01*
X0186121Y0125754D01*
X0186092Y0125686D01*
X0186068Y0125615D01*
X0186046Y0125544D01*
X0186029Y0125472D01*
X0186016Y0125398D01*
X0186006Y0125325D01*
X0186000Y0125250D01*
X0185998Y0125176D01*
X0186000Y0125102D01*
X0186006Y0125027D01*
X0186016Y0124954D01*
X0186029Y0124880D01*
X0186046Y0124808D01*
X0186068Y0124737D01*
X0186092Y0124666D01*
X0186121Y0124598D01*
X0186153Y0124530D01*
X0186189Y0124465D01*
X0186227Y0124402D01*
X0186270Y0124340D01*
X0186315Y0124281D01*
X0186363Y0124224D01*
X0186414Y0124170D01*
X0186468Y0124119D01*
X0186525Y0124071D01*
X0186584Y0124026D01*
X0186646Y0123983D01*
X0186709Y0123945D01*
X0186774Y0123909D01*
X0186842Y0123877D01*
X0186910Y0123848D01*
X0186981Y0123824D01*
X0187052Y0123802D01*
X0187124Y0123785D01*
X0187198Y0123772D01*
X0187271Y0123762D01*
X0187346Y0123756D01*
X0187420Y0123754D01*
X0189198Y0123754D01*
X0187420Y0123754D02*
X0187337Y0123752D01*
X0187254Y0123746D01*
X0187171Y0123736D01*
X0187088Y0123723D01*
X0187007Y0123705D01*
X0186926Y0123684D01*
X0186847Y0123659D01*
X0186769Y0123630D01*
X0186692Y0123598D01*
X0186617Y0123562D01*
X0186543Y0123523D01*
X0186472Y0123480D01*
X0186402Y0123434D01*
X0186335Y0123384D01*
X0186270Y0123332D01*
X0186208Y0123277D01*
X0186148Y0123218D01*
X0186091Y0123157D01*
X0186037Y0123094D01*
X0185986Y0123028D01*
X0185939Y0122959D01*
X0185894Y0122889D01*
X0185853Y0122816D01*
X0185816Y0122742D01*
X0185781Y0122666D01*
X0185751Y0122588D01*
X0185724Y0122510D01*
X0185701Y0122429D01*
X0185681Y0122348D01*
X0185666Y0122266D01*
X0185654Y0122184D01*
X0185646Y0122101D01*
X0185642Y0122018D01*
X0185642Y0121934D01*
X0185646Y0121851D01*
X0185654Y0121768D01*
X0185666Y0121686D01*
X0185681Y0121604D01*
X0185701Y0121523D01*
X0185724Y0121442D01*
X0185751Y0121364D01*
X0185781Y0121286D01*
X0185816Y0121210D01*
X0185853Y0121136D01*
X0185894Y0121063D01*
X0185939Y0120993D01*
X0185986Y0120924D01*
X0186037Y0120858D01*
X0186091Y0120795D01*
X0186148Y0120734D01*
X0186208Y0120675D01*
X0186270Y0120620D01*
X0186335Y0120568D01*
X0186402Y0120518D01*
X0186472Y0120472D01*
X0186543Y0120429D01*
X0186617Y0120390D01*
X0186692Y0120354D01*
X0186769Y0120322D01*
X0186847Y0120293D01*
X0186926Y0120268D01*
X0187007Y0120247D01*
X0187088Y0120229D01*
X0187171Y0120216D01*
X0187254Y0120206D01*
X0187337Y0120200D01*
X0187420Y0120198D01*
X0189198Y0120198D01*
X0189198Y0126598D01*
X0187420Y0126598D01*
X0183044Y0116598D02*
X0181266Y0116598D01*
X0181192Y0116596D01*
X0181117Y0116590D01*
X0181044Y0116580D01*
X0180970Y0116567D01*
X0180898Y0116550D01*
X0180827Y0116528D01*
X0180756Y0116504D01*
X0180688Y0116475D01*
X0180620Y0116443D01*
X0180555Y0116407D01*
X0180492Y0116369D01*
X0180430Y0116326D01*
X0180371Y0116281D01*
X0180314Y0116233D01*
X0180260Y0116182D01*
X0180209Y0116128D01*
X0180161Y0116071D01*
X0180116Y0116012D01*
X0180073Y0115950D01*
X0180035Y0115887D01*
X0179999Y0115822D01*
X0179967Y0115754D01*
X0179938Y0115686D01*
X0179914Y0115615D01*
X0179892Y0115544D01*
X0179875Y0115472D01*
X0179862Y0115398D01*
X0179852Y0115325D01*
X0179846Y0115250D01*
X0179844Y0115176D01*
X0179846Y0115102D01*
X0179852Y0115027D01*
X0179862Y0114954D01*
X0179875Y0114880D01*
X0179892Y0114808D01*
X0179914Y0114737D01*
X0179938Y0114666D01*
X0179967Y0114598D01*
X0179999Y0114530D01*
X0180035Y0114465D01*
X0180073Y0114402D01*
X0180116Y0114340D01*
X0180161Y0114281D01*
X0180209Y0114224D01*
X0180260Y0114170D01*
X0180314Y0114119D01*
X0180371Y0114071D01*
X0180430Y0114026D01*
X0180492Y0113983D01*
X0180555Y0113945D01*
X0180620Y0113909D01*
X0180688Y0113877D01*
X0180756Y0113848D01*
X0180827Y0113824D01*
X0180898Y0113802D01*
X0180970Y0113785D01*
X0181044Y0113772D01*
X0181117Y0113762D01*
X0181192Y0113756D01*
X0181266Y0113754D01*
X0183044Y0113754D01*
X0181266Y0113754D02*
X0181183Y0113752D01*
X0181100Y0113746D01*
X0181017Y0113736D01*
X0180934Y0113723D01*
X0180853Y0113705D01*
X0180772Y0113684D01*
X0180693Y0113659D01*
X0180615Y0113630D01*
X0180538Y0113598D01*
X0180463Y0113562D01*
X0180389Y0113523D01*
X0180318Y0113480D01*
X0180248Y0113434D01*
X0180181Y0113384D01*
X0180116Y0113332D01*
X0180054Y0113277D01*
X0179994Y0113218D01*
X0179937Y0113157D01*
X0179883Y0113094D01*
X0179832Y0113028D01*
X0179785Y0112959D01*
X0179740Y0112889D01*
X0179699Y0112816D01*
X0179662Y0112742D01*
X0179627Y0112666D01*
X0179597Y0112588D01*
X0179570Y0112510D01*
X0179547Y0112429D01*
X0179527Y0112348D01*
X0179512Y0112266D01*
X0179500Y0112184D01*
X0179492Y0112101D01*
X0179488Y0112018D01*
X0179488Y0111934D01*
X0179492Y0111851D01*
X0179500Y0111768D01*
X0179512Y0111686D01*
X0179527Y0111604D01*
X0179547Y0111523D01*
X0179570Y0111442D01*
X0179597Y0111364D01*
X0179627Y0111286D01*
X0179662Y0111210D01*
X0179699Y0111136D01*
X0179740Y0111063D01*
X0179785Y0110993D01*
X0179832Y0110924D01*
X0179883Y0110858D01*
X0179937Y0110795D01*
X0179994Y0110734D01*
X0180054Y0110675D01*
X0180116Y0110620D01*
X0180181Y0110568D01*
X0180248Y0110518D01*
X0180318Y0110472D01*
X0180389Y0110429D01*
X0180463Y0110390D01*
X0180538Y0110354D01*
X0180615Y0110322D01*
X0180693Y0110293D01*
X0180772Y0110268D01*
X0180853Y0110247D01*
X0180934Y0110229D01*
X0181017Y0110216D01*
X0181100Y0110206D01*
X0181183Y0110200D01*
X0181266Y0110198D01*
X0183044Y0110198D01*
X0183044Y0116598D01*
X0177178Y0114821D02*
X0177178Y0114465D01*
X0177176Y0114391D01*
X0177170Y0114316D01*
X0177160Y0114243D01*
X0177147Y0114169D01*
X0177130Y0114097D01*
X0177108Y0114026D01*
X0177084Y0113955D01*
X0177055Y0113887D01*
X0177023Y0113819D01*
X0176987Y0113754D01*
X0176949Y0113691D01*
X0176906Y0113629D01*
X0176861Y0113570D01*
X0176813Y0113513D01*
X0176762Y0113459D01*
X0176708Y0113408D01*
X0176651Y0113360D01*
X0176592Y0113315D01*
X0176530Y0113272D01*
X0176467Y0113234D01*
X0176402Y0113198D01*
X0176334Y0113166D01*
X0176266Y0113137D01*
X0176195Y0113113D01*
X0176124Y0113091D01*
X0176052Y0113074D01*
X0175978Y0113061D01*
X0175905Y0113051D01*
X0175830Y0113045D01*
X0175756Y0113043D01*
X0173623Y0113043D01*
X0173623Y0114821D01*
X0173625Y0114904D01*
X0173631Y0114987D01*
X0173641Y0115070D01*
X0173654Y0115153D01*
X0173672Y0115234D01*
X0173693Y0115315D01*
X0173718Y0115394D01*
X0173747Y0115472D01*
X0173779Y0115549D01*
X0173815Y0115624D01*
X0173854Y0115698D01*
X0173897Y0115769D01*
X0173943Y0115839D01*
X0173993Y0115906D01*
X0174045Y0115971D01*
X0174100Y0116033D01*
X0174159Y0116093D01*
X0174220Y0116150D01*
X0174283Y0116204D01*
X0174349Y0116255D01*
X0174418Y0116302D01*
X0174488Y0116347D01*
X0174561Y0116388D01*
X0174635Y0116425D01*
X0174711Y0116460D01*
X0174789Y0116490D01*
X0174867Y0116517D01*
X0174948Y0116540D01*
X0175029Y0116560D01*
X0175111Y0116575D01*
X0175193Y0116587D01*
X0175276Y0116595D01*
X0175359Y0116599D01*
X0175443Y0116599D01*
X0175526Y0116595D01*
X0175609Y0116587D01*
X0175691Y0116575D01*
X0175773Y0116560D01*
X0175854Y0116540D01*
X0175935Y0116517D01*
X0176013Y0116490D01*
X0176091Y0116460D01*
X0176167Y0116425D01*
X0176241Y0116388D01*
X0176314Y0116347D01*
X0176384Y0116302D01*
X0176453Y0116255D01*
X0176519Y0116204D01*
X0176582Y0116150D01*
X0176643Y0116093D01*
X0176702Y0116033D01*
X0176757Y0115971D01*
X0176809Y0115906D01*
X0176859Y0115839D01*
X0176905Y0115769D01*
X0176948Y0115698D01*
X0176987Y0115624D01*
X0177023Y0115549D01*
X0177055Y0115472D01*
X0177084Y0115394D01*
X0177109Y0115315D01*
X0177130Y0115234D01*
X0177148Y0115153D01*
X0177161Y0115070D01*
X0177171Y0114987D01*
X0177177Y0114904D01*
X0177179Y0114821D01*
X0173623Y0113043D02*
X0173625Y0112939D01*
X0173631Y0112835D01*
X0173640Y0112732D01*
X0173653Y0112629D01*
X0173670Y0112526D01*
X0173691Y0112425D01*
X0173715Y0112324D01*
X0173744Y0112224D01*
X0173775Y0112125D01*
X0173811Y0112027D01*
X0173850Y0111931D01*
X0173892Y0111836D01*
X0173938Y0111743D01*
X0173987Y0111651D01*
X0174039Y0111561D01*
X0174095Y0111474D01*
X0174154Y0111388D01*
X0174216Y0111305D01*
X0174281Y0111224D01*
X0174349Y0111145D01*
X0174420Y0111069D01*
X0174493Y0110996D01*
X0174569Y0110925D01*
X0174648Y0110857D01*
X0174729Y0110792D01*
X0174812Y0110730D01*
X0174898Y0110671D01*
X0174985Y0110615D01*
X0175075Y0110563D01*
X0175167Y0110514D01*
X0175260Y0110468D01*
X0175355Y0110426D01*
X0175451Y0110387D01*
X0175549Y0110351D01*
X0175648Y0110320D01*
X0175748Y0110291D01*
X0175849Y0110267D01*
X0175950Y0110246D01*
X0176053Y0110229D01*
X0176156Y0110216D01*
X0176259Y0110207D01*
X0176363Y0110201D01*
X0176467Y0110199D01*
X0176823Y0105176D02*
X0176821Y0105102D01*
X0176815Y0105027D01*
X0176805Y0104954D01*
X0176792Y0104880D01*
X0176775Y0104808D01*
X0176753Y0104737D01*
X0176729Y0104666D01*
X0176700Y0104598D01*
X0176668Y0104530D01*
X0176632Y0104465D01*
X0176594Y0104402D01*
X0176551Y0104340D01*
X0176506Y0104281D01*
X0176458Y0104224D01*
X0176407Y0104170D01*
X0176353Y0104119D01*
X0176296Y0104071D01*
X0176237Y0104026D01*
X0176175Y0103983D01*
X0176112Y0103945D01*
X0176047Y0103909D01*
X0175979Y0103877D01*
X0175911Y0103848D01*
X0175840Y0103824D01*
X0175769Y0103802D01*
X0175697Y0103785D01*
X0175623Y0103772D01*
X0175550Y0103762D01*
X0175475Y0103756D01*
X0175401Y0103754D01*
X0175327Y0103756D01*
X0175252Y0103762D01*
X0175179Y0103772D01*
X0175105Y0103785D01*
X0175033Y0103802D01*
X0174962Y0103824D01*
X0174891Y0103848D01*
X0174823Y0103877D01*
X0174755Y0103909D01*
X0174690Y0103945D01*
X0174627Y0103983D01*
X0174565Y0104026D01*
X0174506Y0104071D01*
X0174449Y0104119D01*
X0174395Y0104170D01*
X0174344Y0104224D01*
X0174296Y0104281D01*
X0174251Y0104340D01*
X0174208Y0104402D01*
X0174170Y0104465D01*
X0174134Y0104530D01*
X0174102Y0104598D01*
X0174073Y0104666D01*
X0174049Y0104737D01*
X0174027Y0104808D01*
X0174010Y0104880D01*
X0173997Y0104954D01*
X0173987Y0105027D01*
X0173981Y0105102D01*
X0173979Y0105176D01*
X0173981Y0105250D01*
X0173987Y0105325D01*
X0173997Y0105398D01*
X0174010Y0105472D01*
X0174027Y0105544D01*
X0174049Y0105615D01*
X0174073Y0105686D01*
X0174102Y0105754D01*
X0174134Y0105822D01*
X0174170Y0105887D01*
X0174208Y0105950D01*
X0174251Y0106012D01*
X0174296Y0106071D01*
X0174344Y0106128D01*
X0174395Y0106182D01*
X0174449Y0106233D01*
X0174506Y0106281D01*
X0174565Y0106326D01*
X0174627Y0106369D01*
X0174690Y0106407D01*
X0174755Y0106443D01*
X0174823Y0106475D01*
X0174891Y0106504D01*
X0174962Y0106528D01*
X0175033Y0106550D01*
X0175105Y0106567D01*
X0175179Y0106580D01*
X0175252Y0106590D01*
X0175327Y0106596D01*
X0175401Y0106598D01*
X0175475Y0106596D01*
X0175550Y0106590D01*
X0175623Y0106580D01*
X0175697Y0106567D01*
X0175769Y0106550D01*
X0175840Y0106528D01*
X0175911Y0106504D01*
X0175979Y0106475D01*
X0176047Y0106443D01*
X0176112Y0106407D01*
X0176175Y0106369D01*
X0176237Y0106326D01*
X0176296Y0106281D01*
X0176353Y0106233D01*
X0176407Y0106182D01*
X0176458Y0106128D01*
X0176506Y0106071D01*
X0176551Y0106012D01*
X0176594Y0105950D01*
X0176632Y0105887D01*
X0176668Y0105822D01*
X0176700Y0105754D01*
X0176729Y0105686D01*
X0176753Y0105615D01*
X0176775Y0105544D01*
X0176792Y0105472D01*
X0176805Y0105398D01*
X0176815Y0105325D01*
X0176821Y0105250D01*
X0176823Y0105176D01*
X0177179Y0101976D02*
X0177177Y0101893D01*
X0177171Y0101810D01*
X0177161Y0101727D01*
X0177148Y0101644D01*
X0177130Y0101563D01*
X0177109Y0101482D01*
X0177084Y0101403D01*
X0177055Y0101325D01*
X0177023Y0101248D01*
X0176987Y0101173D01*
X0176948Y0101099D01*
X0176905Y0101028D01*
X0176859Y0100958D01*
X0176809Y0100891D01*
X0176757Y0100826D01*
X0176702Y0100764D01*
X0176643Y0100704D01*
X0176582Y0100647D01*
X0176519Y0100593D01*
X0176453Y0100542D01*
X0176384Y0100495D01*
X0176314Y0100450D01*
X0176241Y0100409D01*
X0176167Y0100372D01*
X0176091Y0100337D01*
X0176013Y0100307D01*
X0175935Y0100280D01*
X0175854Y0100257D01*
X0175773Y0100237D01*
X0175691Y0100222D01*
X0175609Y0100210D01*
X0175526Y0100202D01*
X0175443Y0100198D01*
X0175359Y0100198D01*
X0175276Y0100202D01*
X0175193Y0100210D01*
X0175111Y0100222D01*
X0175029Y0100237D01*
X0174948Y0100257D01*
X0174867Y0100280D01*
X0174789Y0100307D01*
X0174711Y0100337D01*
X0174635Y0100372D01*
X0174561Y0100409D01*
X0174488Y0100450D01*
X0174418Y0100495D01*
X0174349Y0100542D01*
X0174283Y0100593D01*
X0174220Y0100647D01*
X0174159Y0100704D01*
X0174100Y0100764D01*
X0174045Y0100826D01*
X0173993Y0100891D01*
X0173943Y0100958D01*
X0173897Y0101028D01*
X0173854Y0101099D01*
X0173815Y0101173D01*
X0173779Y0101248D01*
X0173747Y0101325D01*
X0173718Y0101403D01*
X0173693Y0101482D01*
X0173672Y0101563D01*
X0173654Y0101644D01*
X0173641Y0101727D01*
X0173631Y0101810D01*
X0173625Y0101893D01*
X0173623Y0101976D01*
X0173625Y0102059D01*
X0173631Y0102142D01*
X0173641Y0102225D01*
X0173654Y0102308D01*
X0173672Y0102389D01*
X0173693Y0102470D01*
X0173718Y0102549D01*
X0173747Y0102627D01*
X0173779Y0102704D01*
X0173815Y0102779D01*
X0173854Y0102853D01*
X0173897Y0102924D01*
X0173943Y0102994D01*
X0173993Y0103061D01*
X0174045Y0103126D01*
X0174100Y0103188D01*
X0174159Y0103248D01*
X0174220Y0103305D01*
X0174283Y0103359D01*
X0174349Y0103410D01*
X0174418Y0103457D01*
X0174488Y0103502D01*
X0174561Y0103543D01*
X0174635Y0103580D01*
X0174711Y0103615D01*
X0174789Y0103645D01*
X0174867Y0103672D01*
X0174948Y0103695D01*
X0175029Y0103715D01*
X0175111Y0103730D01*
X0175193Y0103742D01*
X0175276Y0103750D01*
X0175359Y0103754D01*
X0175443Y0103754D01*
X0175526Y0103750D01*
X0175609Y0103742D01*
X0175691Y0103730D01*
X0175773Y0103715D01*
X0175854Y0103695D01*
X0175935Y0103672D01*
X0176013Y0103645D01*
X0176091Y0103615D01*
X0176167Y0103580D01*
X0176241Y0103543D01*
X0176314Y0103502D01*
X0176384Y0103457D01*
X0176453Y0103410D01*
X0176519Y0103359D01*
X0176582Y0103305D01*
X0176643Y0103248D01*
X0176702Y0103188D01*
X0176757Y0103126D01*
X0176809Y0103061D01*
X0176859Y0102994D01*
X0176905Y0102924D01*
X0176948Y0102853D01*
X0176987Y0102779D01*
X0177023Y0102704D01*
X0177055Y0102627D01*
X0177084Y0102549D01*
X0177109Y0102470D01*
X0177130Y0102389D01*
X0177148Y0102308D01*
X0177161Y0102225D01*
X0177171Y0102142D01*
X0177177Y0102059D01*
X0177179Y0101976D01*
X0181266Y0103754D02*
X0181183Y0103752D01*
X0181100Y0103746D01*
X0181017Y0103736D01*
X0180934Y0103723D01*
X0180853Y0103705D01*
X0180772Y0103684D01*
X0180693Y0103659D01*
X0180615Y0103630D01*
X0180538Y0103598D01*
X0180463Y0103562D01*
X0180389Y0103523D01*
X0180318Y0103480D01*
X0180248Y0103434D01*
X0180181Y0103384D01*
X0180116Y0103332D01*
X0180054Y0103277D01*
X0179994Y0103218D01*
X0179937Y0103157D01*
X0179883Y0103094D01*
X0179832Y0103028D01*
X0179785Y0102959D01*
X0179740Y0102889D01*
X0179699Y0102816D01*
X0179662Y0102742D01*
X0179627Y0102666D01*
X0179597Y0102588D01*
X0179570Y0102510D01*
X0179547Y0102429D01*
X0179527Y0102348D01*
X0179512Y0102266D01*
X0179500Y0102184D01*
X0179492Y0102101D01*
X0179488Y0102018D01*
X0179488Y0101934D01*
X0179492Y0101851D01*
X0179500Y0101768D01*
X0179512Y0101686D01*
X0179527Y0101604D01*
X0179547Y0101523D01*
X0179570Y0101442D01*
X0179597Y0101364D01*
X0179627Y0101286D01*
X0179662Y0101210D01*
X0179699Y0101136D01*
X0179740Y0101063D01*
X0179785Y0100993D01*
X0179832Y0100924D01*
X0179883Y0100858D01*
X0179937Y0100795D01*
X0179994Y0100734D01*
X0180054Y0100675D01*
X0180116Y0100620D01*
X0180181Y0100568D01*
X0180248Y0100518D01*
X0180318Y0100472D01*
X0180389Y0100429D01*
X0180463Y0100390D01*
X0180538Y0100354D01*
X0180615Y0100322D01*
X0180693Y0100293D01*
X0180772Y0100268D01*
X0180853Y0100247D01*
X0180934Y0100229D01*
X0181017Y0100216D01*
X0181100Y0100206D01*
X0181183Y0100200D01*
X0181266Y0100198D01*
X0183044Y0100198D01*
X0183044Y0106598D01*
X0181266Y0106598D01*
X0181192Y0106596D01*
X0181117Y0106590D01*
X0181044Y0106580D01*
X0180970Y0106567D01*
X0180898Y0106550D01*
X0180827Y0106528D01*
X0180756Y0106504D01*
X0180688Y0106475D01*
X0180620Y0106443D01*
X0180555Y0106407D01*
X0180492Y0106369D01*
X0180430Y0106326D01*
X0180371Y0106281D01*
X0180314Y0106233D01*
X0180260Y0106182D01*
X0180209Y0106128D01*
X0180161Y0106071D01*
X0180116Y0106012D01*
X0180073Y0105950D01*
X0180035Y0105887D01*
X0179999Y0105822D01*
X0179967Y0105754D01*
X0179938Y0105686D01*
X0179914Y0105615D01*
X0179892Y0105544D01*
X0179875Y0105472D01*
X0179862Y0105398D01*
X0179852Y0105325D01*
X0179846Y0105250D01*
X0179844Y0105176D01*
X0179846Y0105102D01*
X0179852Y0105027D01*
X0179862Y0104954D01*
X0179875Y0104880D01*
X0179892Y0104808D01*
X0179914Y0104737D01*
X0179938Y0104666D01*
X0179967Y0104598D01*
X0179999Y0104530D01*
X0180035Y0104465D01*
X0180073Y0104402D01*
X0180116Y0104340D01*
X0180161Y0104281D01*
X0180209Y0104224D01*
X0180260Y0104170D01*
X0180314Y0104119D01*
X0180371Y0104071D01*
X0180430Y0104026D01*
X0180492Y0103983D01*
X0180555Y0103945D01*
X0180620Y0103909D01*
X0180688Y0103877D01*
X0180756Y0103848D01*
X0180827Y0103824D01*
X0180898Y0103802D01*
X0180970Y0103785D01*
X0181044Y0103772D01*
X0181117Y0103762D01*
X0181192Y0103756D01*
X0181266Y0103754D01*
X0183044Y0103754D01*
X0183044Y0096598D02*
X0181266Y0096598D01*
X0181192Y0096596D01*
X0181117Y0096590D01*
X0181044Y0096580D01*
X0180970Y0096567D01*
X0180898Y0096550D01*
X0180827Y0096528D01*
X0180756Y0096504D01*
X0180688Y0096475D01*
X0180620Y0096443D01*
X0180555Y0096407D01*
X0180492Y0096369D01*
X0180430Y0096326D01*
X0180371Y0096281D01*
X0180314Y0096233D01*
X0180260Y0096182D01*
X0180209Y0096128D01*
X0180161Y0096071D01*
X0180116Y0096012D01*
X0180073Y0095950D01*
X0180035Y0095887D01*
X0179999Y0095822D01*
X0179967Y0095754D01*
X0179938Y0095686D01*
X0179914Y0095615D01*
X0179892Y0095544D01*
X0179875Y0095472D01*
X0179862Y0095398D01*
X0179852Y0095325D01*
X0179846Y0095250D01*
X0179844Y0095176D01*
X0179846Y0095102D01*
X0179852Y0095027D01*
X0179862Y0094954D01*
X0179875Y0094880D01*
X0179892Y0094808D01*
X0179914Y0094737D01*
X0179938Y0094666D01*
X0179967Y0094598D01*
X0179999Y0094530D01*
X0180035Y0094465D01*
X0180073Y0094402D01*
X0180116Y0094340D01*
X0180161Y0094281D01*
X0180209Y0094224D01*
X0180260Y0094170D01*
X0180314Y0094119D01*
X0180371Y0094071D01*
X0180430Y0094026D01*
X0180492Y0093983D01*
X0180555Y0093945D01*
X0180620Y0093909D01*
X0180688Y0093877D01*
X0180756Y0093848D01*
X0180827Y0093824D01*
X0180898Y0093802D01*
X0180970Y0093785D01*
X0181044Y0093772D01*
X0181117Y0093762D01*
X0181192Y0093756D01*
X0181266Y0093754D01*
X0183044Y0093754D01*
X0181266Y0093754D02*
X0181183Y0093752D01*
X0181100Y0093746D01*
X0181017Y0093736D01*
X0180934Y0093723D01*
X0180853Y0093705D01*
X0180772Y0093684D01*
X0180693Y0093659D01*
X0180615Y0093630D01*
X0180538Y0093598D01*
X0180463Y0093562D01*
X0180389Y0093523D01*
X0180318Y0093480D01*
X0180248Y0093434D01*
X0180181Y0093384D01*
X0180116Y0093332D01*
X0180054Y0093277D01*
X0179994Y0093218D01*
X0179937Y0093157D01*
X0179883Y0093094D01*
X0179832Y0093028D01*
X0179785Y0092959D01*
X0179740Y0092889D01*
X0179699Y0092816D01*
X0179662Y0092742D01*
X0179627Y0092666D01*
X0179597Y0092588D01*
X0179570Y0092510D01*
X0179547Y0092429D01*
X0179527Y0092348D01*
X0179512Y0092266D01*
X0179500Y0092184D01*
X0179492Y0092101D01*
X0179488Y0092018D01*
X0179488Y0091934D01*
X0179492Y0091851D01*
X0179500Y0091768D01*
X0179512Y0091686D01*
X0179527Y0091604D01*
X0179547Y0091523D01*
X0179570Y0091442D01*
X0179597Y0091364D01*
X0179627Y0091286D01*
X0179662Y0091210D01*
X0179699Y0091136D01*
X0179740Y0091063D01*
X0179785Y0090993D01*
X0179832Y0090924D01*
X0179883Y0090858D01*
X0179937Y0090795D01*
X0179994Y0090734D01*
X0180054Y0090675D01*
X0180116Y0090620D01*
X0180181Y0090568D01*
X0180248Y0090518D01*
X0180318Y0090472D01*
X0180389Y0090429D01*
X0180463Y0090390D01*
X0180538Y0090354D01*
X0180615Y0090322D01*
X0180693Y0090293D01*
X0180772Y0090268D01*
X0180853Y0090247D01*
X0180934Y0090229D01*
X0181017Y0090216D01*
X0181100Y0090206D01*
X0181183Y0090200D01*
X0181266Y0090198D01*
X0183044Y0090198D01*
X0183044Y0096598D01*
X0177178Y0096598D02*
X0177178Y0095887D01*
X0177178Y0096598D02*
X0173623Y0096598D01*
X0175401Y0090198D01*
X0173623Y0086598D02*
X0175756Y0080198D01*
X0177889Y0086598D01*
X0180132Y0086598D02*
X0183688Y0086598D01*
X0183688Y0083754D01*
X0181555Y0083754D01*
X0181481Y0083752D01*
X0181406Y0083746D01*
X0181333Y0083736D01*
X0181259Y0083723D01*
X0181187Y0083706D01*
X0181116Y0083684D01*
X0181045Y0083660D01*
X0180977Y0083631D01*
X0180909Y0083599D01*
X0180844Y0083563D01*
X0180781Y0083525D01*
X0180719Y0083482D01*
X0180660Y0083437D01*
X0180603Y0083389D01*
X0180549Y0083338D01*
X0180498Y0083284D01*
X0180450Y0083227D01*
X0180405Y0083168D01*
X0180362Y0083106D01*
X0180324Y0083043D01*
X0180288Y0082978D01*
X0180256Y0082910D01*
X0180227Y0082842D01*
X0180203Y0082771D01*
X0180181Y0082700D01*
X0180164Y0082628D01*
X0180151Y0082554D01*
X0180141Y0082481D01*
X0180135Y0082406D01*
X0180133Y0082332D01*
X0180132Y0082332D02*
X0180132Y0081621D01*
X0180133Y0081621D02*
X0180135Y0081547D01*
X0180141Y0081472D01*
X0180151Y0081399D01*
X0180164Y0081325D01*
X0180181Y0081253D01*
X0180203Y0081182D01*
X0180227Y0081111D01*
X0180256Y0081043D01*
X0180288Y0080975D01*
X0180324Y0080910D01*
X0180362Y0080847D01*
X0180405Y0080785D01*
X0180450Y0080726D01*
X0180498Y0080669D01*
X0180549Y0080615D01*
X0180603Y0080564D01*
X0180660Y0080516D01*
X0180719Y0080471D01*
X0180781Y0080428D01*
X0180844Y0080390D01*
X0180909Y0080354D01*
X0180977Y0080322D01*
X0181045Y0080293D01*
X0181116Y0080269D01*
X0181187Y0080247D01*
X0181259Y0080230D01*
X0181333Y0080217D01*
X0181406Y0080207D01*
X0181481Y0080201D01*
X0181555Y0080199D01*
X0181555Y0080198D02*
X0183688Y0080198D01*
X0183743Y0076598D02*
X0180187Y0070198D01*
X0180187Y0076598D01*
X0177178Y0076598D02*
X0175401Y0076598D01*
X0175401Y0076599D02*
X0175319Y0076597D01*
X0175237Y0076591D01*
X0175155Y0076582D01*
X0175074Y0076569D01*
X0174994Y0076552D01*
X0174914Y0076531D01*
X0174836Y0076507D01*
X0174759Y0076479D01*
X0174683Y0076448D01*
X0174608Y0076413D01*
X0174536Y0076374D01*
X0174465Y0076333D01*
X0174396Y0076288D01*
X0174330Y0076240D01*
X0174265Y0076189D01*
X0174203Y0076135D01*
X0174144Y0076078D01*
X0174087Y0076019D01*
X0174033Y0075957D01*
X0173982Y0075892D01*
X0173934Y0075826D01*
X0173889Y0075757D01*
X0173848Y0075686D01*
X0173809Y0075614D01*
X0173774Y0075539D01*
X0173743Y0075463D01*
X0173715Y0075386D01*
X0173691Y0075308D01*
X0173670Y0075228D01*
X0173653Y0075148D01*
X0173640Y0075067D01*
X0173631Y0074985D01*
X0173625Y0074903D01*
X0173623Y0074821D01*
X0173623Y0071976D01*
X0173625Y0071894D01*
X0173631Y0071812D01*
X0173640Y0071730D01*
X0173653Y0071649D01*
X0173670Y0071569D01*
X0173691Y0071489D01*
X0173715Y0071411D01*
X0173743Y0071334D01*
X0173774Y0071258D01*
X0173809Y0071183D01*
X0173848Y0071111D01*
X0173889Y0071040D01*
X0173934Y0070971D01*
X0173982Y0070905D01*
X0174033Y0070840D01*
X0174087Y0070778D01*
X0174144Y0070719D01*
X0174203Y0070662D01*
X0174265Y0070608D01*
X0174330Y0070557D01*
X0174396Y0070509D01*
X0174465Y0070464D01*
X0174536Y0070423D01*
X0174608Y0070384D01*
X0174683Y0070349D01*
X0174759Y0070318D01*
X0174836Y0070290D01*
X0174914Y0070266D01*
X0174994Y0070245D01*
X0175074Y0070228D01*
X0175155Y0070215D01*
X0175237Y0070206D01*
X0175319Y0070200D01*
X0175401Y0070198D01*
X0177178Y0070198D01*
X0177178Y0076598D01*
X0183743Y0076598D02*
X0183743Y0070198D01*
X0186751Y0070198D02*
X0186751Y0073754D01*
X0187818Y0073754D01*
X0190307Y0075176D02*
X0190305Y0075250D01*
X0190299Y0075325D01*
X0190289Y0075398D01*
X0190276Y0075472D01*
X0190259Y0075544D01*
X0190237Y0075615D01*
X0190213Y0075686D01*
X0190184Y0075754D01*
X0190152Y0075822D01*
X0190116Y0075887D01*
X0190078Y0075950D01*
X0190035Y0076012D01*
X0189990Y0076071D01*
X0189942Y0076128D01*
X0189891Y0076182D01*
X0189837Y0076233D01*
X0189780Y0076281D01*
X0189721Y0076326D01*
X0189659Y0076369D01*
X0189596Y0076407D01*
X0189531Y0076443D01*
X0189463Y0076475D01*
X0189395Y0076504D01*
X0189324Y0076528D01*
X0189253Y0076550D01*
X0189181Y0076567D01*
X0189107Y0076580D01*
X0189034Y0076590D01*
X0188959Y0076596D01*
X0188885Y0076598D01*
X0186751Y0076598D01*
X0190307Y0075176D02*
X0190307Y0071621D01*
X0190305Y0071547D01*
X0190299Y0071472D01*
X0190289Y0071399D01*
X0190276Y0071325D01*
X0190259Y0071253D01*
X0190237Y0071182D01*
X0190213Y0071111D01*
X0190184Y0071043D01*
X0190152Y0070975D01*
X0190116Y0070910D01*
X0190078Y0070847D01*
X0190035Y0070785D01*
X0189990Y0070726D01*
X0189942Y0070669D01*
X0189891Y0070615D01*
X0189837Y0070564D01*
X0189780Y0070516D01*
X0189721Y0070471D01*
X0189659Y0070428D01*
X0189596Y0070390D01*
X0189531Y0070354D01*
X0189463Y0070322D01*
X0189395Y0070293D01*
X0189324Y0070269D01*
X0189253Y0070247D01*
X0189181Y0070230D01*
X0189107Y0070217D01*
X0189034Y0070207D01*
X0188959Y0070201D01*
X0188885Y0070199D01*
X0188885Y0070198D02*
X0186751Y0070198D01*
D12*
X0200764Y0047902D02*
X0165331Y0047902D01*
X0165331Y0017194D01*
X0200764Y0017194D01*
X0200764Y0047902D01*
X0198795Y0044359D02*
X0198795Y0040422D01*
X0181079Y0038454D01*
X0179110Y0035501D02*
X0198795Y0037469D01*
X0198795Y0044359D02*
X0181079Y0046328D01*
X0179110Y0035501D02*
X0179110Y0029595D01*
X0198795Y0027627D01*
X0198795Y0024674D02*
X0183047Y0026643D01*
X0183047Y0018769D02*
X0198795Y0020737D01*
X0198795Y0024674D01*
M02*
