%
M48
M72
T01C0.02362
T02C0.03150
T03C0.03200
T04C0.03937
T05C0.04000
T06C0.07480
%
T01
X51000Y52548
X61669Y59064
X101000Y32548
X151000Y47548
X156000Y32548
X179465Y56820
X171000Y102548
X179465Y109182
X116000Y182548
X106000Y172548
X88815Y177489
X88815Y187568
X51000Y157548
X41000Y152548
X51000Y137548
X41000Y127548
T02
X165921Y38847
X170646Y35698
X165921Y32548
X170646Y29398
X165921Y26249
X143874Y17548
X136000Y17548
X128126Y17548
T03
X16787Y14300
X16787Y24300
X26000Y37548
X35016Y24497
X35016Y14497
X57240Y14654
X74681Y15265
X74681Y25265
X88894Y39261
X88894Y49261
X88894Y59261
X88894Y69261
X88894Y79261
X88894Y89261
X88894Y99261
X88894Y109261
X88894Y119261
X88894Y129261
X88894Y139261
X88894Y149261
X88894Y159261
X88894Y169261
X71000Y172548
X31000Y172548
X111000Y192548
X118894Y169261
X118894Y159261
X118894Y149261
X118894Y139261
X118894Y129261
X118894Y119261
X118894Y109261
X118894Y99261
X118894Y89261
X118894Y79261
X118894Y69261
X118894Y59261
X118894Y49261
X118894Y39261
X111965Y25875
X111965Y15875
X100547Y19261
X93047Y24261
X93047Y14261
X71000Y47548
X71000Y57548
X57240Y34654
X41000Y37548
X41000Y77548
X26000Y77548
X133835Y160639
X133835Y170639
X151000Y192548
X159839Y89261
X139839Y89261
T04
X120252Y17548
X151748Y17548
T05
X11000Y72548
X11000Y82548
X11000Y92548
X11000Y102548
X11000Y112548
X11000Y122548
X11000Y132548
X11000Y142548
X11000Y157548
X11000Y167548
X11000Y177548
X11000Y187548
X11000Y197548
X41000Y192548
X61000Y192548
X71000Y97548
X71000Y87548
X71000Y77548
X161000Y192548
X181000Y192548
X198500Y142548
X198500Y132548
X198500Y122548
X198500Y112548
X198500Y102548
X198500Y92548
X198500Y82548
X198500Y72548
T06
X186000Y18178
X186000Y46918
M30
